<?xml version="1.0" encoding="utf-8"?>
<!-- Generator: Adobe Illustrator 23.0.2, SVG Export Plug-In . SVG Version: 6.00 Build 0)  -->
<svg version="1.1" id="Layer_1" xmlns="http://www.w3.org/2000/svg" xmlns:xlink="http://www.w3.org/1999/xlink" x="0px" y="0px"
	 viewBox="0 0 750 500" style="enable-background:new 0 0 750 500;" xml:space="preserve">
<style type="text/css">
	.st0{fill:#E0E0E0;}
	.st1{fill:#CBD6E2;}
	.st2{fill:#FFFFFF;}
	.st3{fill:#EAF0F6;}
	.st4{fill:#7C98B6;}
	.st5{fill:#CBD6E2;enable-background:new    ;}
	.st6{fill:#FAFAFA;}
	.st7{fill:#F5F5F5;}
	.st8{fill:#253342;}
	.st9{fill:#263238;}
	.st10{fill:#00BDA5;}
	.st11{fill:#33475B;}
	.st12{opacity:0.3;}
	.st13{opacity:0.3;fill:#FFFFFF;enable-background:new    ;}
	.st14{fill:#F2B9A7;}
	.st15{fill:#664D42;}
	.st16{fill:#455A64;}
	.st17{fill:#FFFFFF;enable-background:new    ;}
	.st18{fill:url(#SVGID_1_);}
	.st19{fill:url(#SVGID_2_);}
	.st20{fill:url(#SVGID_3_);}
	.st21{fill:url(#SVGID_4_);}
	.st22{fill:url(#SVGID_5_);}
	.st23{fill:#6A78D1;}
	.st24{fill:#FF7A59;}
	.st25{fill:#F5C26B;}
	.st26{fill:#00A9FA;}
	.st27{fill:#EFF9F8;}
	.st28{fill:#F3F4FF;}
	.st29{fill:#FFF8F6;}
	.st30{fill:#FBF7EE;}
	.st31{fill:#E0F5FE;}
	.st32{fill:#F2545B;}
	.st33{fill:#FCE3E5;}
	.st34{fill:#00A4BD;}
	.st35{fill:#BDE1E5;}
</style>
<path class="st0" d="M234.7,314.3c0-0.4,1.3-0.7,2.8-0.7l-0.7,0.7V314c0-0.1,0-0.2,0-0.3c0-0.1,0-0.3,0-0.5c0-0.3,0.1-0.6,0.2-0.9
	c0.1-0.5,0.3-0.8,0.5-0.8s0.4,0.3,0.5,0.8c0.1,0.3,0.1,0.6,0.1,0.9c0,0.2,0,0.4,0,0.5v0.3v0.3l-0.7,0.7
	C236,315,234.7,314.6,234.7,314.3z"/>
<path class="st1" d="M223.6,314.3c0-0.4,1.3-0.7,2.8-0.7c1.5,0,2.8,0.3,2.8,0.7s-1.3,0.7-2.8,0.7C224.8,315,223.6,314.6,223.6,314.3
	z"/>
<path class="st1" d="M212.4,314.3c0-0.4,1.3-0.7,2.8-0.7c1.5,0,2.8,0.3,2.8,0.7s-1.3,0.7-2.8,0.7S212.4,314.6,212.4,314.3z"/>
<path class="st1" d="M201.2,314.3c0-0.4,1.3-0.7,2.8-0.7c1.5,0,2.8,0.3,2.8,0.7s-1.3,0.7-2.8,0.7S201.2,314.6,201.2,314.3z"/>
<path class="st1" d="M190,314.3c0-0.4,1.3-0.7,2.8-0.7s2.8,0.3,2.8,0.7s-1.3,0.7-2.8,0.7C191.3,315,190,314.6,190,314.3z"/>
<path class="st1" d="M178.8,314.3c0-0.4,1.3-0.7,2.8-0.7c1.5,0,2.8,0.3,2.8,0.7s-1.3,0.7-2.8,0.7C180.1,315,178.8,314.6,178.8,314.3
	z"/>
<path class="st1" d="M167.6,314.3c0-0.4,1.3-0.7,2.8-0.7s2.8,0.3,2.8,0.7s-1.3,0.7-2.8,0.7C168.9,315,167.6,314.6,167.6,314.3z"/>
<path class="st1" d="M156.4,314.3c0-0.4,1.3-0.7,2.8-0.7c1.5,0,2.8,0.3,2.8,0.7s-1.3,0.7-2.8,0.7S156.4,314.6,156.4,314.3z"/>
<path class="st1" d="M145.3,314.3c0-0.4,1.3-0.7,2.8-0.7s2.8,0.3,2.8,0.7s-1.3,0.7-2.8,0.7C146.5,315,145.3,314.6,145.3,314.3z"/>
<path class="st1" d="M134.1,314.3c0-0.4,1.3-0.7,2.8-0.7s2.8,0.3,2.8,0.7s-1.3,0.7-2.8,0.7S134.1,314.6,134.1,314.3z"/>
<path class="st1" d="M122.9,314.3c0-0.4,1.3-0.7,2.8-0.7s2.8,0.3,2.8,0.7s-1.3,0.7-2.8,0.7C124.1,315,122.9,314.6,122.9,314.3z"/>
<path class="st1" d="M111.7,314.3c0-0.4,1.3-0.7,2.8-0.7c1.6,0,2.8,0.3,2.8,0.7s-1.3,0.7-2.8,0.7S111.7,314.6,111.7,314.3z"/>
<path class="st1" d="M100.5,314.3c0-0.4,1.3-0.7,2.8-0.7c1.5,0,2.8,0.3,2.8,0.7s-1.3,0.7-2.8,0.7C101.8,315,100.5,314.6,100.5,314.3
	z"/>
<path class="st1" d="M89.3,314.3c0-0.4,1.3-0.7,2.8-0.7c1.5,0,2.8,0.3,2.8,0.7s-1.3,0.7-2.8,0.7S89.3,314.6,89.3,314.3z"/>
<path class="st1" d="M78.1,314.3c0-0.4,1.3-0.7,2.8-0.7s2.8,0.3,2.8,0.7s-1.3,0.7-2.8,0.7S78.1,314.6,78.1,314.3z"/>
<path class="st1" d="M69.8,311.5c0.4,0,0.7,1.3,0.7,2.8c-1.5-1.5-0.4-0.4-0.7-0.7h0.6h0.5c0.3,0,0.6,0.1,0.9,0.2
	c0.5,0.1,0.8,0.3,0.8,0.5s-0.3,0.4-0.8,0.5c-0.3,0.1-0.6,0.1-0.9,0.2h-0.5h-0.6l-0.7-0.7C69,312.7,69.3,311.5,69.8,311.5z"/>
<path class="st1" d="M69.8,300.3c0.4,0,0.7,1.2,0.7,2.8s-0.3,2.8-0.7,2.8s-0.7-1.3-0.7-2.8S69.3,300.3,69.8,300.3z"/>
<path class="st1" d="M69.8,289.2c0.4,0,0.7,1.3,0.7,2.8s-0.3,2.8-0.7,2.8S69,293.5,69,292S69.3,289.2,69.8,289.2z"/>
<path class="st1" d="M69.8,278.1c0.4,0,0.7,1.3,0.7,2.8s-0.3,2.8-0.7,2.8s-0.7-1.2-0.7-2.8S69.3,278.1,69.8,278.1z"/>
<path class="st1" d="M69.8,267c0.4,0,0.7,1.2,0.7,2.8s-0.3,2.8-0.7,2.8s-0.8-1.3-0.8-2.8S69.3,267,69.8,267z"/>
<path class="st1" d="M69.8,255.9c0.4,0,0.7,1.3,0.7,2.8s-0.3,2.8-0.7,2.8s-0.7-1.2-0.7-2.8S69.3,255.9,69.8,255.9z"/>
<path class="st1" d="M69.8,244.8c0.4,0,0.7,1.3,0.7,2.8s-0.3,2.8-0.7,2.8s-0.7-1.2-0.7-2.8C69,246,69.3,244.8,69.8,244.8z"/>
<path class="st1" d="M69.8,233.6c0.4,0,0.7,1.2,0.7,2.8c0,1.5-0.3,2.8-0.7,2.8S69,238,69,236.4S69.3,233.6,69.8,233.6z"/>
<path class="st1" d="M69.8,222.5c0.4,0,0.7,1.3,0.7,2.8s-0.3,2.8-0.7,2.8s-0.8-1.2-0.8-2.8C69,223.8,69.3,222.5,69.8,222.5z"/>
<path class="st1" d="M72.5,214.2c0,0.4-1.3,0.7-2.8,0.7l0.7-0.7v0.3c0,0.1,0,0.2,0,0.3c0,0.1,0,0.3,0,0.5c0,0.3-0.1,0.6-0.2,0.9
	c-0.1,0.5-0.3,0.8-0.5,0.8c-0.2,0-0.4-0.3-0.5-0.8c-0.1-0.3-0.1-0.6-0.2-0.9c0-0.2,0-0.4,0-0.5v-0.5l0.7-0.7
	C71.3,213.4,72.5,213.8,72.5,214.2z"/>
<path class="st1" d="M83.7,214.2c0,0.4-1.3,0.7-2.8,0.7s-2.8-0.3-2.8-0.7c0-0.4,1.3-0.7,2.8-0.7S83.7,213.8,83.7,214.2z"/>
<path class="st1" d="M94.9,214.2c0,0.4-1.3,0.7-2.8,0.7s-2.8-0.3-2.8-0.7c0-0.4,1.3-0.7,2.8-0.7C93.7,213.4,94.9,213.8,94.9,214.2z"
	/>
<path class="st1" d="M106.1,214.2c0,0.4-1.3,0.7-2.8,0.7c-1.6,0-2.8-0.3-2.8-0.7c0-0.4,1.3-0.7,2.8-0.7
	C104.8,213.4,106.1,213.8,106.1,214.2z"/>
<path class="st1" d="M117.3,214.2c0,0.4-1.3,0.7-2.8,0.7s-2.8-0.3-2.8-0.7c0-0.4,1.3-0.7,2.8-0.7C116,213.4,117.3,213.8,117.3,214.2
	z"/>
<path class="st1" d="M128.5,214.2c0,0.4-1.3,0.7-2.8,0.7c-1.5,0-2.8-0.3-2.8-0.7c0-0.4,1.3-0.7,2.8-0.7S128.5,213.8,128.5,214.2z"/>
<path class="st1" d="M139.7,214.2c0,0.4-1.3,0.7-2.8,0.7s-2.8-0.3-2.8-0.7c0-0.4,1.3-0.7,2.8-0.7S139.7,213.8,139.7,214.2z"/>
<path class="st1" d="M150.8,214.2c0,0.4-1.3,0.7-2.8,0.7c-1.5,0-2.8-0.3-2.8-0.7c0-0.4,1.3-0.7,2.8-0.7S150.8,213.8,150.8,214.2z"/>
<path class="st0" d="M162,214.2c0,0.4-1.3,0.7-2.8,0.7s-2.8-0.3-2.8-0.7c0-0.4,1.3-0.7,2.8-0.7C160.7,213.4,162,213.8,162,214.2z"/>
<path class="st0" d="M173.2,214.2c0,0.4-1.3,0.7-2.8,0.7c-1.5,0-2.8-0.3-2.8-0.7c0-0.4,1.3-0.7,2.8-0.7S173.2,213.8,173.2,214.2z"/>
<path class="st0" d="M184.4,214.2c0,0.4-1.3,0.7-2.8,0.7c-1.6,0-2.8-0.3-2.8-0.7c0-0.4,1.3-0.7,2.8-0.7
	C183.1,213.4,184.4,213.8,184.4,214.2z"/>
<path class="st0" d="M195.6,214.2c0,0.4-1.3,0.7-2.8,0.7c-1.5,0-2.8-0.3-2.8-0.7c0-0.4,1.3-0.7,2.8-0.7
	C194.3,213.4,195.6,213.8,195.6,214.2z"/>
<path class="st0" d="M206.8,214.2c0,0.4-1.3,0.7-2.8,0.7s-2.8-0.3-2.8-0.7c0-0.4,1.3-0.7,2.8-0.7
	C205.5,213.4,206.8,213.8,206.8,214.2z"/>
<path class="st0" d="M218,214.2c0,0.4-1.3,0.7-2.8,0.7s-2.8-0.3-2.8-0.7c0-0.4,1.3-0.7,2.8-0.7C216.7,213.4,218,213.8,218,214.2z"/>
<path class="st0" d="M229.1,214.2c0,0.4-1.3,0.7-2.8,0.7c-1.5,0-2.8-0.3-2.8-0.7c0-0.4,1.3-0.7,2.8-0.7
	C227.9,213.4,229.1,213.8,229.1,214.2z"/>
<path class="st0" d="M237.5,217c-0.4,0-0.7-1.3-0.7-2.8c1.5,1.4,0.4,0.4,0.7,0.7H237h-0.5c-0.3,0-0.6-0.1-0.9-0.2
	c-0.5-0.1-0.8-0.3-0.8-0.5s0.3-0.4,0.8-0.5c0.3-0.1,0.6-0.1,0.9-0.1l0.5-0.1h0.6l0.7,0.7C238.3,215.7,237.9,217,237.5,217z"/>
<path class="st0" d="M237.5,228.1c-0.4,0-0.7-1.2-0.7-2.8c0-1.5,0.3-2.8,0.7-2.8s0.7,1.3,0.7,2.8S237.9,228.1,237.5,228.1z"/>
<path class="st0" d="M237.5,239.2c-0.4,0-0.7-1.3-0.7-2.8s0.3-2.8,0.7-2.8s0.7,1.2,0.7,2.8C238.3,238,237.9,239.2,237.5,239.2z"/>
<path class="st0" d="M237.5,250.3c-0.4,0-0.7-1.2-0.7-2.8c0-1.5,0.3-2.8,0.7-2.8s0.7,1.3,0.7,2.8S237.9,250.3,237.5,250.3z"/>
<path class="st0" d="M237.5,261.4c-0.4,0-0.7-1.2-0.7-2.8s0.3-2.8,0.7-2.8s0.7,1.3,0.7,2.8S237.9,261.4,237.5,261.4z"/>
<path class="st0" d="M237.5,272.5c-0.4,0-0.7-1.3-0.7-2.8s0.3-2.8,0.7-2.8s0.7,1.2,0.7,2.8C238.3,271.3,237.9,272.5,237.5,272.5z"/>
<path class="st0" d="M237.5,283.7c-0.4,0-0.7-1.2-0.7-2.8s0.3-2.8,0.7-2.8s0.7,1.3,0.7,2.8S237.9,283.7,237.5,283.7z"/>
<path class="st0" d="M237.5,294.8c-0.4,0-0.7-1.2-0.7-2.8s0.3-2.8,0.7-2.8s0.7,1.3,0.7,2.8S237.9,294.8,237.5,294.8z"/>
<path class="st0" d="M237.5,305.9c-0.4,0-0.7-1.3-0.7-2.8s0.3-2.8,0.7-2.8s0.7,1.2,0.7,2.8S237.9,305.9,237.5,305.9z"/>
<path class="st1" d="M73.8,309.4h-8v8h8V309.4z"/>
<path class="st1" d="M73.8,210.2h-8v8h8V210.2z"/>
<path class="st0" d="M241.5,210.2h-8v8h8V210.2z"/>
<path class="st1" d="M241.5,309.1h-8v8h8V309.1z"/>
<path class="st1" d="M157.6,309.1h-8v8h8V309.1z"/>
<path class="st1" d="M157.6,210.2h-8v8h8V210.2z"/>
<path class="st1" d="M73.8,260.2h-8v8h8V260.2z"/>
<path class="st0" d="M241.5,260.2h-8v8h8V260.2z"/>
<path class="st1" d="M684,110.2c0-0.3,0.9-0.5,2.1-0.5c-1.1,1.1-0.3,0.3-0.5,0.5V110c0-0.1,0-0.1,0-0.2c0-0.1,0-0.2,0-0.4
	c0-0.2,0.1-0.4,0.1-0.7c0.1-0.4,0.2-0.6,0.4-0.6c0.1,0,0.3,0.2,0.4,0.6c0.1,0.2,0.1,0.4,0.1,0.7c0,0.2,0,0.3,0,0.4v0.4
	c-0.3,0.3,0.5-0.5-0.5,0.5C685,110.8,684,110.5,684,110.2z"/>
<path class="st1" d="M675.6,110.2c0-0.3,1-0.5,2.1-0.5c1.1,0,2.1,0.3,2.1,0.5c0,0.3-0.9,0.6-2.1,0.6
	C676.5,110.8,675.6,110.5,675.6,110.2z"/>
<path class="st1" d="M667.1,110.2c0-0.3,1-0.5,2.1-0.5c1.2,0,2.1,0.3,2.1,0.5c0,0.3-1,0.6-2.1,0.6
	C668.1,110.8,667.1,110.5,667.1,110.2z"/>
<path class="st1" d="M658.7,110.2c0-0.3,1-0.5,2.1-0.5c1.1,0,2.1,0.3,2.1,0.5c0,0.3-1,0.6-2.1,0.6
	C659.6,110.8,658.7,110.5,658.7,110.2z"/>
<path class="st1" d="M650.2,110.2c0-0.3,0.9-0.5,2.1-0.5c1.2,0,2.1,0.3,2.1,0.5c0,0.3-1,0.6-2.1,0.6
	C651.2,110.8,650.2,110.5,650.2,110.2z"/>
<path class="st1" d="M641.8,110.2c0-0.3,0.9-0.5,2.1-0.5s2.1,0.3,2.1,0.5c0,0.3-0.9,0.6-2.1,0.6S641.8,110.5,641.8,110.2z"/>
<path class="st1" d="M633.3,110.2c0-0.3,1-0.5,2.1-0.5c1.2,0,2.1,0.3,2.1,0.5c0,0.3-0.9,0.6-2.1,0.6S633.3,110.5,633.3,110.2z"/>
<path class="st1" d="M624.9,110.2c0-0.3,1-0.5,2.1-0.5c1.1,0,2.1,0.3,2.1,0.5c0,0.3-1,0.6-2.1,0.6S624.9,110.5,624.9,110.2z"/>
<path class="st1" d="M616.4,110.2c0-0.3,1-0.5,2.1-0.5c1.1,0,2.1,0.3,2.1,0.5c0,0.3-1,0.6-2.1,0.6
	C617.4,110.8,616.4,110.5,616.4,110.2z"/>
<path class="st1" d="M608,110.2c0-0.3,1-0.5,2.1-0.5s2.1,0.3,2.1,0.5c0,0.3-1,0.6-2.1,0.6S608,110.5,608,110.2z"/>
<path class="st1" d="M599.5,110.2c0-0.3,0.9-0.5,2.1-0.5c1.2,0,2.1,0.3,2.1,0.5c0,0.3-0.9,0.6-2.1,0.6
	C600.5,110.8,599.5,110.5,599.5,110.2z"/>
<path class="st0" d="M591.1,110.2c0-0.3,0.9-0.5,2.1-0.5s2.1,0.3,2.1,0.5c0,0.3-0.9,0.6-2.1,0.6S591.1,110.5,591.1,110.2z"/>
<path class="st0" d="M582.6,110.2c0-0.3,1-0.5,2.1-0.5s2.1,0.3,2.1,0.5c0,0.3-0.9,0.6-2.1,0.6S582.6,110.5,582.6,110.2z"/>
<path class="st0" d="M574.2,110.2c0-0.3,1-0.5,2.1-0.5c1.1,0,2.1,0.3,2.1,0.5c0,0.3-0.9,0.6-2.1,0.6
	C575.1,110.8,574.2,110.5,574.2,110.2z"/>
<path class="st0" d="M565.7,110.2c0-0.3,1-0.5,2.1-0.5c1.2,0,2.1,0.3,2.1,0.5c0,0.3-1,0.6-2.1,0.6
	C566.7,110.8,565.7,110.5,565.7,110.2z"/>
<path class="st0" d="M559.4,108.1c0.3,0,0.5,1,0.5,2.1c-1.1-1.1-0.3-0.3-0.5-0.5h0.4h0.4c0.2,0,0.5,0.1,0.7,0.1
	c0.4,0.1,0.6,0.2,0.6,0.4c0,0.1-0.2,0.3-0.6,0.4c-0.2,0.1-0.4,0.1-0.7,0.1h-0.4h-0.4c-0.3-0.2,0.5,0.6-0.6-0.5
	C558.8,109.1,559.1,108.1,559.4,108.1z"/>
<path class="st0" d="M559.4,99.7c0.3,0,0.5,0.9,0.5,2.1c0,1.2-0.3,2.1-0.5,2.1c-0.3,0-0.6-0.9-0.6-2.1
	C558.8,100.7,559.1,99.7,559.4,99.7z"/>
<path class="st0" d="M559.4,91.3c0.3,0,0.5,0.9,0.5,2.1c0,1.2-0.3,2.1-0.5,2.1c-0.3,0-0.6-0.9-0.6-2.1
	C558.8,92.3,559.1,91.3,559.4,91.3z"/>
<path class="st0" d="M559.4,82.9c0.3,0,0.5,0.9,0.5,2.1c0,1.2-0.3,2.1-0.5,2.1c-0.3,0-0.6-0.9-0.6-2.1
	C558.8,83.8,559.1,82.9,559.4,82.9z"/>
<path class="st0" d="M559.4,74.5c0.3,0,0.5,0.9,0.5,2.1c0,1.2-0.3,2.1-0.5,2.1c-0.3,0-0.6-0.9-0.6-2.1
	C558.8,75.5,559.1,74.5,559.4,74.5z"/>
<path class="st0" d="M559.4,66.1c0.3,0,0.5,0.9,0.5,2.1c0,1.2-0.3,2.1-0.5,2.1c-0.3,0-0.6-0.9-0.6-2.1
	C558.8,67.1,559.1,66.1,559.4,66.1z"/>
<path class="st0" d="M559.4,57.7c0.3,0,0.5,0.9,0.5,2.1c0,1.2-0.3,2.1-0.5,2.1c-0.3,0-0.6-0.9-0.6-2.1
	C558.8,58.7,559.1,57.7,559.4,57.7z"/>
<path class="st0" d="M559.4,49.3c0.3,0,0.5,0.9,0.5,2.1s-0.3,2.1-0.5,2.1c-0.3,0-0.6-0.9-0.6-2.1S559.1,49.3,559.4,49.3z"/>
<path class="st1" d="M559.4,40.9c0.3,0,0.5,0.9,0.5,2.1s-0.3,2.1-0.5,2.1c-0.3,0-0.6-0.9-0.6-2.1S559.1,40.9,559.4,40.9z"/>
<path class="st0" d="M561.5,34.6c0,0.3-1,0.5-2.1,0.5c1.1-1.1,0.3-0.3,0.5-0.5V35c0,0.1,0,0.2,0,0.4c0,0.2-0.1,0.5-0.1,0.7
	c-0.1,0.4-0.2,0.6-0.4,0.6c-0.2,0-0.3-0.2-0.4-0.6c-0.1-0.2-0.1-0.4-0.1-0.7V35v-0.4c0.2-0.3-0.5,0.5,0.5-0.5
	C560.6,34.1,561.5,34.3,561.5,34.6z"/>
<path class="st1" d="M570,34.6c0,0.3-1,0.5-2.1,0.5s-2.1-0.2-2.1-0.5c0-0.3,0.9-0.5,2.1-0.5C569.1,34.1,570,34.3,570,34.6z"/>
<path class="st1" d="M578.4,34.6c0,0.3-0.9,0.5-2.1,0.5c-1.2,0-2.1-0.2-2.1-0.5c0-0.3,1-0.5,2.1-0.5
	C577.4,34.1,578.4,34.3,578.4,34.6z"/>
<path class="st1" d="M586.8,34.6c0,0.3-0.9,0.5-2.1,0.5s-2.1-0.2-2.1-0.5c0-0.3,1-0.5,2.1-0.5S586.8,34.3,586.8,34.6z"/>
<path class="st1" d="M595.3,34.6c0,0.3-0.9,0.5-2.1,0.5s-2.1-0.2-2.1-0.5c0-0.3,0.9-0.5,2.1-0.5S595.3,34.3,595.3,34.6z"/>
<path class="st1" d="M603.8,34.6c0,0.3-1,0.5-2.1,0.5s-2.1-0.2-2.1-0.5c0-0.3,0.9-0.5,2.1-0.5C602.8,34.1,603.8,34.3,603.8,34.6z"/>
<path class="st1" d="M612.2,34.6c0,0.3-1,0.5-2.1,0.5c-1.1,0-2.1-0.2-2.1-0.5c0-0.3,1-0.5,2.1-0.5C611.3,34.1,612.2,34.3,612.2,34.6
	z"/>
<path class="st1" d="M620.7,34.6c0,0.3-1,0.5-2.1,0.5c-1.2,0-2.1-0.2-2.1-0.5c0-0.3,1-0.5,2.1-0.5S620.7,34.3,620.7,34.6z"/>
<path class="st1" d="M629.1,34.6c0,0.3-1,0.5-2.1,0.5s-2.1-0.2-2.1-0.5c0-0.3,1-0.5,2.1-0.5C628.1,34.1,629.1,34.3,629.1,34.6z"/>
<path class="st1" d="M637.5,34.6c0,0.3-0.9,0.5-2.1,0.5s-2.1-0.2-2.1-0.5c0-0.3,1-0.5,2.1-0.5C636.6,34.1,637.5,34.3,637.5,34.6z"/>
<path class="st1" d="M646,34.6c0,0.3-0.9,0.5-2.1,0.5c-1.2,0-2.1-0.2-2.1-0.5c0-0.3,0.9-0.5,2.1-0.5C645.1,34.1,646,34.3,646,34.6z"
	/>
<path class="st1" d="M654.4,34.6c0,0.3-1,0.5-2.1,0.5c-1.1,0-2.1-0.2-2.1-0.5c0-0.3,0.9-0.5,2.1-0.5
	C653.5,34.1,654.4,34.3,654.4,34.6z"/>
<path class="st1" d="M662.9,34.6c0,0.3-1,0.5-2.1,0.5c-1.2,0-2.1-0.2-2.1-0.5c0-0.3,1-0.5,2.1-0.5C661.9,34.1,662.9,34.3,662.9,34.6
	z"/>
<path class="st1" d="M671.3,34.6c0,0.3-1,0.5-2.1,0.5c-1.1,0-2.1-0.2-2.1-0.5c0-0.3,1-0.5,2.1-0.5C670.4,34.1,671.3,34.3,671.3,34.6
	z"/>
<path class="st1" d="M679.8,34.6c0,0.3-0.9,0.5-2.1,0.5c-1.2,0-2.1-0.2-2.1-0.5c0-0.3,1-0.5,2.1-0.5
	C678.8,34.1,679.8,34.3,679.8,34.6z"/>
<path class="st1" d="M686.1,36.7c-0.3,0-0.5-1-0.5-2.1l0.5,0.5h-0.4h-0.4c-0.2,0-0.5-0.1-0.7-0.1c-0.4-0.1-0.6-0.2-0.6-0.4
	s0.2-0.3,0.6-0.4c0.2-0.1,0.4-0.1,0.7-0.1h0.4h0.4c0.3,0.2-0.5-0.5,0.5,0.5C686.7,35.8,686.4,36.7,686.1,36.7z"/>
<path class="st1" d="M686.1,45.1c-0.3,0-0.5-0.9-0.5-2.1s0.3-2.1,0.5-2.1s0.5,0.9,0.5,2.1S686.4,45.1,686.1,45.1z"/>
<path class="st1" d="M686.1,53.5c-0.3,0-0.5-0.9-0.5-2.1s0.3-2.1,0.5-2.1s0.5,0.9,0.5,2.1S686.4,53.5,686.1,53.5z"/>
<path class="st1" d="M686.1,61.9c-0.3,0-0.5-0.9-0.5-2.1c0-1.2,0.3-2.1,0.5-2.1s0.5,0.9,0.5,2.1C686.7,61,686.4,61.9,686.1,61.9z"/>
<path class="st1" d="M686.1,70.3c-0.3,0-0.5-0.9-0.5-2.1c0-1.2,0.3-2.1,0.5-2.1s0.5,0.9,0.5,2.1C686.7,69.4,686.4,70.3,686.1,70.3z"
	/>
<path class="st1" d="M686.1,78.7c-0.3,0-0.5-0.9-0.5-2.1c0-1.2,0.3-2.1,0.5-2.1s0.5,0.9,0.5,2.1C686.7,77.8,686.4,78.7,686.1,78.7z"
	/>
<path class="st1" d="M686.1,87.1c-0.3,0-0.5-0.9-0.5-2.1c0-1.2,0.3-2.1,0.5-2.1s0.5,0.9,0.5,2.1C686.7,86.2,686.4,87.1,686.1,87.1z"
	/>
<path class="st1" d="M686.1,95.5c-0.3,0-0.5-0.9-0.5-2.1c0-1.2,0.3-2.1,0.5-2.1s0.5,0.9,0.5,2.1C686.7,94.6,686.4,95.5,686.1,95.5z"
	/>
<path class="st1" d="M686.1,103.9c-0.3,0-0.5-0.9-0.5-2.1c0-1.2,0.3-2.1,0.5-2.1s0.5,0.9,0.5,2.1C686.7,103,686.4,103.9,686.1,103.9
	z"/>
<path class="st0" d="M562.4,106.6h-6v6h6V106.6z"/>
<path class="st1" d="M562.4,31.6h-6v6h6V31.6z"/>
<path class="st1" d="M689.1,31.6h-6v6h6V31.6z"/>
<path class="st1" d="M689.1,106.3h-6v6h6V106.3z"/>
<path class="st1" d="M625.8,106.3h-6v6h6V106.3z"/>
<path class="st1" d="M625.8,31.6h-6v6h6V31.6z"/>
<path class="st0" d="M562.4,69.4h-6v6h6V69.4z"/>
<path class="st1" d="M689.1,69.4h-6v6h6V69.4z"/>
<path class="st1" d="M46.2,54.2h86.9v126H46.8L46.2,54.2z"/>
<path class="st2" d="M39.7,179.5h86.1V54.8H39.7V179.5z"/>
<path class="st1" d="M126.4,54.2v126H39.1v-126H126.4z M125.2,178.9V55.4H40.3v123.6H125.2z"/>
<path class="st2" d="M115.1,68.3H50.4V166h64.7V68.3z"/>
<path class="st1" d="M50.4,68.3c0,0,0,0.2,0,0.5c0,0.3,0,0.8,0,1.4c0,1.2,0,3,0,5.4c0,4.7,0,11.5,0.1,20.1c0,17.2,0.1,41.6,0.1,70.4
	l-0.3-0.3H115l-0.3,0.3c0-36.9,0-70.9,0.1-97.7l0.2,0.2l-47-0.2l-13-0.1h-3.4C50.8,68.3,50.4,68.3,50.4,68.3l1.1,0.1h3.4l13-0.1
	l47.2-0.3h0.3v0.3c0,26.9,0,60.9,0.1,97.7v0.3h-0.3H50.4h-0.3V166c0.1-28.8,0.1-53.3,0.1-70.6c0-8.6,0.1-15.4,0.1-20.1
	c0-2.3,0-4.1,0-5.3c0-0.6,0-1,0-1.3S50.4,68.3,50.4,68.3z"/>
<path class="st1" d="M39.5,179.5c0.4-0.8,0.8-1.5,1.4-2.1c0.9-1.3,2.2-3,3.7-4.9c1.5-1.9,2.9-3.5,4-4.7c0.5-0.7,1.1-1.3,1.8-1.8
	c0.1,0.1-2.3,3.1-5.3,6.9C42.1,176.6,39.6,179.6,39.5,179.5z"/>
<path class="st1" d="M39.7,54.8c2,2.1,3.9,4.3,5.6,6.6c3,3.7,5.2,6.8,5.1,7c-2-2.1-3.9-4.3-5.6-6.6C41.8,58,39.5,54.9,39.7,54.8z"/>
<path class="st2" d="M125.8,54.9l-11.3,13.9L125.8,54.9z"/>
<path class="st1" d="M114.5,68.8c-0.1-0.1,2.3-3.3,5.4-7.1c1.8-2.4,3.8-4.6,5.9-6.8c0.1,0.1-2.3,3.3-5.4,7.1
	C117.3,65.8,114.6,68.9,114.5,68.8z"/>
<path class="st1" d="M125.8,179.5c-0.1,0.1-2.6-2.8-5.5-6.5c-2.9-3.7-5.2-6.8-5-6.9s2.6,2.8,5.5,6.5
	C122.6,174.8,124.3,177.1,125.8,179.5z"/>
<path class="st1" d="M86.9,118.6H75.5l-1.4,3.1c-0.4,0.8-0.6,1.7-0.7,2.6c0,0.4,0.1,0.8,0.3,1.2c0.2,0.4,0.5,0.6,0.8,0.8
	c1,0.4,2.1,0.6,3.2,0.6v0.9H67v-0.9c1.1-0.1,2.1-0.6,2.8-1.4c1.2-1.5,2.1-3.1,2.8-4.9l11.6-25.7h0.5l11.6,26.4
	c0.6,1.7,1.6,3.3,2.8,4.7c0.6,0.5,1.4,0.8,2.3,0.9v0.9H85.7v-0.9h0.6c0.9,0.1,1.8-0.1,2.6-0.5c0.2-0.1,0.3-0.3,0.4-0.5
	s0.1-0.4,0.1-0.6c0-0.3-0.1-0.6-0.2-0.9c0-0.1-0.3-0.7-0.7-1.8L86.9,118.6z M86.1,116.8l-4.8-11.1l-4.9,11.1H86.1z"/>
<path class="st3" d="M622.9,393.2v25.2h36.9h40.6v-25.2H622.9z"/>
<path class="st4" d="M619.6,386.2v7H703v-7h-43.3H619.6z"/>
<path class="st4" d="M661.3,418.4h39v-25.2h2.7v-7h-43.3v6.4L661.3,418.4z"/>
<path class="st5" d="M649.4,397.3h-15.7v3.8h15.7V397.3z"/>
<path class="st2" d="M651.9,405.8h-20.2v8h20.2V405.8z"/>
<path class="st1" d="M712,472.5l-1.6-345.1h-6.7v68h-17.3l-0.3-68h-6.7v68H620l-0.3-68H613v68h-17.2l-0.3-68h-6.7v345.1h8.3
	l-0.2-46.3H613v46.3h8.3l-0.2-46.3h58.3v46.3h8.3l-0.2-46.3h16.2v46.3H712z M604.6,380.5l-6-25.6h12.3L604.6,380.5z M613.1,356.5
	V417l-7.2-31L613.1,356.5z M613.1,268.7l-7.2-31l7.2-29.4V268.7z M611.8,274.3h-14.9l7.6-31.1L611.8,274.3z M604.6,232.3l-6.9-29.3
	h14L604.6,232.3z M603.2,237.7l-7,28.7l-0.3-60.1L603.2,237.7z M596.6,357.6l6.6,28.4l-6.4,25.9L596.6,357.6z M604.5,391.4l6.4,27.4
	h-13.1L604.5,391.4z M596.8,347.4l0-0.2l-0.2,0.1l-0.3-65.4H613v65.7L596.8,347.4z M620.5,281.7h59v65.7h-58.7L620.5,281.7z
	 M694.7,243.1l7.3,31.1H687L694.7,243.1z M686.7,264.6l-0.3-56.6l6.9,29.6L686.7,264.6z M703.7,270.6l-7.7-33l7.7-31.3V270.6z
	 M703.7,274.1v0.1h-0.5L703.7,274.1z M703.7,358.3V415l-6.8-29.1L703.7,358.3z M695.7,380.5l-6-25.6h12.2L695.7,380.5z M694.8,232.2
	l-6.9-29.2h14L694.8,232.2z M703.8,281.7v65.7h-15.9l-0.1-0.2l-0.7,0.2l-0.3-65.5L703.8,281.7z M694.4,385.9l-6.8,27.8l-0.3-58.4
	L694.4,385.9z M695.6,391.3l6.4,27.4h-13.2L695.6,391.3z M679.4,203v71.3h-59l-0.3-71.3H679.4z M622.2,418.7h-1.1l-0.3-63.8h58.6
	v63.8H622.2z"/>
<path class="st4" d="M674.2,223.1h-11v51.4h11V223.1z"/>
<path class="st6" d="M671.1,262.2c0,0.4-0.1,0.9-0.4,1.2c-0.2,0.4-0.6,0.6-1,0.8c-0.4,0.2-0.8,0.2-1.3,0.1c-0.4-0.1-0.8-0.3-1.1-0.6
	s-0.5-0.7-0.6-1.1c-0.1-0.4,0-0.9,0.1-1.3c0.2-0.4,0.4-0.7,0.8-1c0.4-0.2,0.8-0.4,1.2-0.4c0.6,0,1.1,0.2,1.5,0.6
	C670.9,261.1,671.1,261.6,671.1,262.2L671.1,262.2z"/>
<path class="st6" d="M670.5,236.7h-3.4v21h3.4V236.7z"/>
<path class="st3" d="M663,223.1h-11v51.4h11V223.1z"/>
<path class="st6" d="M659.9,262.2c0,0.4-0.1,0.9-0.4,1.2c-0.2,0.4-0.6,0.6-1,0.8c-0.4,0.2-0.8,0.2-1.3,0.1c-0.4-0.1-0.8-0.3-1.1-0.6
	s-0.5-0.7-0.6-1.1c-0.1-0.4,0-0.9,0.1-1.3c0.2-0.4,0.4-0.7,0.8-1c0.4-0.2,0.8-0.4,1.2-0.4c0.6,0,1.1,0.2,1.5,0.6
	C659.7,261.1,659.9,261.6,659.9,262.2L659.9,262.2z"/>
<path class="st6" d="M659.3,236.7H656v21h3.4V236.7z"/>
<path class="st4" d="M652.4,223.1h-11v51.4h11V223.1z"/>
<path class="st0" d="M649.2,262.2c0,0.4-0.1,0.9-0.4,1.2c-0.2,0.4-0.6,0.6-1,0.8c-0.4,0.2-0.8,0.2-1.3,0.1c-0.4-0.1-0.8-0.3-1.1-0.6
	c-0.3-0.3-0.5-0.7-0.6-1.1c-0.1-0.4,0-0.9,0.1-1.3c0.2-0.4,0.4-0.7,0.8-1c0.4-0.2,0.8-0.4,1.2-0.4c0.3,0,0.6,0.1,0.8,0.2
	c0.3,0.1,0.5,0.3,0.7,0.5c0.2,0.2,0.4,0.4,0.5,0.7C649.2,261.6,649.2,261.9,649.2,262.2L649.2,262.2z"/>
<path class="st0" d="M648.7,236.7h-3.4v21h3.4V236.7z"/>
<path class="st5" d="M627.7,273.8l13.3-45.3l-4.6-2l-13.6,45.6L627.7,273.8z"/>
<path class="st5" d="M608,347.4v-7.8h55l0.2,7.8H608z"/>
<path class="st2" d="M663.1,340.9c0,0-48.8,0.4-52,1.1c-0.7,0.2-1.4,3.2,0,3.4s52,0.7,52,0.7V340.9z"/>
<path class="st4" d="M614.4,339.3v-7.8H658l0.1,7.8H614.4z"/>
<path class="st6" d="M658,332.8c0,0-38.6,0.4-41.2,1.1c-0.5,0.2-1.1,3.2,0,3.4c1.1,0.3,41.2,0.7,41.2,0.7V332.8z"/>
<path class="st3" d="M614.2,331.6v-7.8h43.6l0.1,7.8H614.2z"/>
<path class="st6" d="M657.8,325.1c0,0-38.6,0.4-41.1,1.1c-0.5,0.2-1.1,3.2,0,3.4c1.1,0.3,41.1,0.7,41.1,0.7V325.1z"/>
<path class="st4" d="M679.2,145h-11v51.4h11V145z"/>
<path class="st0" d="M676.1,184.1c0,0.4-0.1,0.9-0.4,1.2c-0.2,0.4-0.6,0.6-1,0.8c-0.4,0.2-0.8,0.2-1.3,0.1c-0.4-0.1-0.8-0.3-1.1-0.6
	c-0.3-0.3-0.5-0.7-0.6-1.1c-0.1-0.4,0-0.9,0.1-1.3c0.2-0.4,0.4-0.7,0.8-1c0.4-0.2,0.8-0.4,1.2-0.4c0.6,0,1.1,0.2,1.5,0.6
	C675.8,183,676.1,183.5,676.1,184.1L676.1,184.1z"/>
<path class="st0" d="M675.5,158.6h-3.4v21h3.4V158.6z"/>
<path class="st3" d="M668,145h-11v51.4h11V145z"/>
<path class="st6" d="M664.9,184.1c0,0.4-0.1,0.9-0.4,1.2c-0.2,0.4-0.6,0.6-1,0.8c-0.4,0.2-0.8,0.2-1.3,0.1c-0.4-0.1-0.8-0.3-1.1-0.6
	c-0.3-0.3-0.5-0.7-0.6-1.1c-0.1-0.4,0-0.9,0.1-1.3c0.2-0.4,0.4-0.7,0.8-1c0.4-0.2,0.8-0.4,1.2-0.4c0.6,0,1.1,0.2,1.5,0.6
	C664.6,183,664.9,183.5,664.9,184.1L664.9,184.1z"/>
<path class="st6" d="M664.3,158.6h-3.4v21h3.4V158.6z"/>
<path class="st4" d="M657.3,145h-11v51.4h11V145z"/>
<path class="st6" d="M654.2,184.1c0,0.4-0.1,0.9-0.4,1.2c-0.2,0.4-0.6,0.6-1,0.8c-0.4,0.2-0.8,0.2-1.3,0.1c-0.4-0.1-0.8-0.3-1.1-0.6
	c-0.3-0.3-0.5-0.7-0.6-1.1c-0.1-0.4,0-0.9,0.1-1.3c0.2-0.4,0.4-0.7,0.8-1c0.4-0.2,0.8-0.4,1.2-0.4c0.6,0,1.1,0.2,1.5,0.6
	C654,183,654.2,183.5,654.2,184.1L654.2,184.1z"/>
<path class="st6" d="M653.6,158.6h-3.4v21h3.4V158.6z"/>
<path class="st7" d="M103.2,464.1c-1.3-1.1-4.3-4.8-2-8.9c0.8-1.5,2.6-2.3,4.2-3c1.7-0.6,3.2-1.4,4.6-2.4c2.5-2.1,3.2-5.7,4.9-8.5
	c1.9-3.3,5.5-5.7,9.3-5.5c4.3,0.2,7.9,3.7,9.6,7.8s1.7,8.5,1.7,12.8c0,2.4-0.1,5.1-1.9,6.7c-1.8,1.6-4.1,1.5-6.3,1.5l-23.6-0.7"/>
<path class="st6" d="M598.8,43.7H152.9v260.4h241.9l16.1,14.8l14-14.8h173.9V43.7z"/>
<path class="st8" d="M598.8,43.7h-446V63h446V43.7z"/>
<path class="st2" d="M163.9,56.2c1.4,0,2.5-1.1,2.5-2.5c0-1.4-1.1-2.5-2.5-2.5s-2.5,1.1-2.5,2.5C161.4,55.1,162.6,56.2,163.9,56.2z"
	/>
<path class="st2" d="M173.2,56.2c1.4,0,2.5-1.1,2.5-2.5c0-1.4-1.1-2.5-2.5-2.5c-1.4,0-2.5,1.1-2.5,2.5
	C170.7,55.1,171.9,56.2,173.2,56.2z"/>
<path class="st2" d="M182.5,56.2c1.4,0,2.5-1.1,2.5-2.5c0-1.4-1.1-2.5-2.5-2.5c-1.4,0-2.5,1.1-2.5,2.5
	C180,55.1,181.2,56.2,182.5,56.2z"/>
<path class="st9" d="M376.5,85.2c0,0.1-8.8,0.3-19.7,0.3c-10.9,0-19.7-0.1-19.7-0.3c0-0.1,8.8-0.3,19.7-0.3
	C367.7,84.9,376.5,85,376.5,85.2z"/>
<path class="st9" d="M428.8,85.2c0,0.1-8.8,0.3-19.7,0.3c-10.8,0-19.7-0.1-19.7-0.3c0-0.1,8.8-0.3,19.7-0.3
	C420,84.9,428.8,85,428.8,85.2z"/>
<path class="st9" d="M481.1,85.2c0,0.1-8.8,0.3-19.7,0.3c-10.9,0-19.7-0.1-19.7-0.3c0-0.1,8.8-0.3,19.7-0.3
	C472.3,84.9,481.1,85,481.1,85.2z"/>
<path class="st9" d="M533.8,85.2c0,0.1-8.8,0.3-19.7,0.3c-10.8,0-19.7-0.1-19.7-0.3c0-0.1,8.8-0.3,19.7-0.3
	C525,84.9,533.8,85,533.8,85.2z"/>
<path class="st10" d="M222.6,105.7v13.4c0,0.3,0.1,0.6,0.2,0.9c0.1,0.3,0.3,0.5,0.5,0.8c0.2,0.2,0.5,0.4,0.8,0.5
	c0.3,0.1,0.6,0.2,0.9,0.2h15.1l3.8,4.8l4.1-4.6h15.7c0.3,0,0.6-0.1,0.9-0.2c0.3-0.1,0.5-0.3,0.8-0.5c0.2-0.2,0.4-0.5,0.5-0.8
	c0.1-0.3,0.2-0.6,0.2-0.9v-13.6c0-0.3-0.1-0.6-0.2-0.9c-0.1-0.3-0.3-0.5-0.5-0.8c-0.2-0.2-0.5-0.4-0.8-0.5c-0.3-0.1-0.6-0.2-0.9-0.2
	l-38.8,0.1c-0.6,0-1.2,0.3-1.7,0.7C222.8,104.5,222.6,105.1,222.6,105.7L222.6,105.7z"/>
<path class="st2" d="M231.7,116.3h-2.3v-2.1l5.2-5.7h0.1c0.3-0.1,0.6-0.1,0.9-0.1s0.6,0.2,0.8,0.3c0.2,0.3,0.4,0.5,0.4,0.9
	s0.1,0.7,0,1v0.1L231.7,116.3z M230.2,115.6h1.2l4.8-5.3c0.1-0.4,0-0.7-0.2-1c-0.1-0.1-0.3-0.1-0.4-0.2c-0.2,0-0.3,0-0.5,0.1
	l-4.9,5.3V115.6z"/>
<path class="st2" d="M246.5,114.9v0.7h-4.3v-5.9h4.2v0.7H243v1.8h3v0.7h-3v1.9L246.5,114.9z"/>
<path class="st2" d="M251.9,109.3v6.3h-0.8v-0.7c-0.2,0.2-0.4,0.4-0.7,0.6c-0.3,0.1-0.6,0.2-0.9,0.2c-0.6,0-1.1-0.3-1.5-0.7
	c-0.4-0.4-0.6-1-0.6-1.6s0.2-1.1,0.6-1.6c0.4-0.4,0.9-0.7,1.5-0.7c0.3,0,0.6,0,0.9,0.2c0.3,0.1,0.5,0.3,0.7,0.6v-2.5H251.9z
	 M251.1,113.3c0-0.2,0-0.4,0-0.7c-0.1-0.2-0.2-0.4-0.3-0.6c-0.1-0.2-0.3-0.3-0.5-0.4c-0.2-0.1-0.4-0.1-0.6-0.1s-0.4,0-0.6,0.1
	c-0.2,0.1-0.4,0.2-0.5,0.4c-0.1,0.2-0.2,0.4-0.3,0.6c-0.1,0.2-0.1,0.4,0,0.7c0,0.2,0,0.4,0,0.7c0.1,0.2,0.2,0.4,0.3,0.6
	c0.1,0.2,0.3,0.3,0.5,0.4c0.2,0.1,0.4,0.1,0.6,0.1s0.4,0,0.6-0.1c0.2-0.1,0.4-0.2,0.5-0.4c0.1-0.2,0.2-0.4,0.3-0.6
	C251.1,113.8,251.1,113.6,251.1,113.3L251.1,113.3z"/>
<path class="st2" d="M253.3,109.8c0-0.1,0-0.1,0-0.2c0-0.1,0.1-0.1,0.1-0.2c0.1-0.1,0.1-0.1,0.2-0.1c0.1,0,0.1,0,0.2,0
	c0.1,0,0.1,0,0.2,0c0.1,0,0.1,0.1,0.2,0.1c0.1,0,0.1,0.1,0.1,0.2c0,0.1,0,0.1,0,0.2c0,0.1-0.1,0.3-0.2,0.4c-0.1,0.1-0.2,0.2-0.4,0.2
	s-0.3-0.1-0.4-0.2C253.4,110,253.3,109.9,253.3,109.8L253.3,109.8z M253.4,111.2h0.8v4.5h-0.8V111.2z"/>
<path class="st2" d="M258.4,115.4c-0.3,0.2-0.6,0.3-1,0.3c-0.2,0-0.4,0-0.6-0.1c-0.2-0.1-0.3-0.2-0.5-0.3c-0.1-0.1-0.2-0.3-0.3-0.5
	c-0.1-0.2-0.1-0.4-0.1-0.6v-2.5h-0.8v-0.7h0.8v-1h0.8v1h1.3v0.7h-1.3v2.4c0,0.5,0.3,0.8,0.7,0.8c0.2,0,0.5-0.1,0.6-0.2L258.4,115.4z
	"/>
<path class="st10" d="M333.9,273.8H186.5V125.9h147.5V273.8z M187.5,272.8h145.5V126.9H187.5V272.8z"/>
<path class="st10" d="M261.8,276.1h-5.1v-5h5.1V276.1z M257.7,275.1h3.1v-3h-3.1V275.1z"/>
<path class="st10" d="M336,194.8h-5.1v-5h5.1V194.8z M331.9,193.8h3.1v-3h-3.1V193.8z"/>
<path class="st10" d="M189,194.8h-5.1v-5h5.1V194.8z M184.9,193.8h3.1v-3h-3.1L184.9,193.8z"/>
<path class="st10" d="M558.1,202.6H362.4v-47.3h195.7V202.6z M363.4,201.6h193.7v-45.3H363.4V201.6z"/>
<path class="st9" d="M559.5,221.8c0,0.1-42.7,0.3-95.4,0.3c-52.7,0-95.4-0.1-95.4-0.3s42.7-0.3,95.4-0.3S559.5,221.6,559.5,221.8z"
	/>
<path class="st0" d="M558.5,250.8c0,0.1-42.7,0.3-95.4,0.3s-95.4-0.1-95.4-0.3c0-0.2,42.7-0.3,95.4-0.3S558.5,250.7,558.5,250.8z"/>
<path class="st0" d="M558.5,258.5c0,0.1-42.7,0.3-95.4,0.3s-95.4-0.1-95.4-0.3c0-0.1,42.7-0.3,95.4-0.3S558.5,258.3,558.5,258.5z"/>
<path class="st9" d="M465.3,231.9c0,0.1-21.6,0.3-48.3,0.3s-48.3-0.1-48.3-0.3c0-0.2,21.6-0.3,48.3-0.3S465.3,231.7,465.3,231.9z"/>
<path class="st11" d="M577,283.3h-5v-1h5V283.3z M567,283.3h-5v-1h5V283.3z M557,283.3h-5v-1h5V283.3z M547,283.3h-5v-1h5V283.3z
	 M577.5,282.2h-1v-5h1V282.2z M538.6,281.7h-1v-5h1V281.7z M577.5,272.2h-1v-5h1V272.2z M538.6,271.7h-1v-5h1V271.7z M577.5,262.2
	h-1v-5h1V262.2z M538.6,261.7h-1v-5h1V261.7z M577.5,252.2h-1v-5h1V252.2z M538.6,251.7h-1v-5h1V251.7z M575.3,244.4h-5v-1h5V244.4z
	 M565.3,244.4h-5v-1h5V244.4z M555.3,244.4h-5v-1h5V244.4z M545.3,244.4h-5v-1h5V244.4z"/>
<path class="st11" d="M538.4,248c-0.7,0-1.4-0.2-2-0.6c-0.6-0.4-1.1-1-1.4-1.7c-0.3-0.7-0.4-1.4-0.2-2.1c0.1-0.7,0.5-1.4,1-1.9
	c0.5-0.5,1.2-0.9,1.9-1s1.5-0.1,2.1,0.2c0.7,0.3,1.2,0.8,1.7,1.4c0.4,0.6,0.6,1.3,0.6,2c0,1-0.4,1.9-1.1,2.6S539.4,248,538.4,248z
	 M538.4,241.6c-0.5,0-1,0.2-1.5,0.5c-0.4,0.3-0.8,0.7-1,1.2c-0.2,0.5-0.3,1-0.2,1.5c0.1,0.5,0.4,1,0.7,1.4c0.4,0.4,0.9,0.6,1.4,0.7
	c0.5,0.1,1.1,0,1.5-0.2c0.5-0.2,0.9-0.5,1.2-1c0.3-0.4,0.4-1,0.4-1.5c0-0.7-0.3-1.4-0.8-1.9S539.1,241.7,538.4,241.6L538.4,241.6z"
	/>
<path class="st11" d="M576.8,248c-0.7,0-1.4-0.2-2-0.6c-0.6-0.4-1.1-1-1.4-1.7c-0.3-0.7-0.4-1.4-0.2-2.1c0.1-0.7,0.5-1.4,1-1.9
	c0.5-0.5,1.2-0.9,1.9-1s1.5-0.1,2.1,0.2c0.7,0.3,1.2,0.8,1.7,1.4c0.4,0.6,0.6,1.3,0.6,2c0,1-0.4,1.9-1.1,2.6S577.7,248,576.8,248z
	 M576.8,241.6c-0.5,0-1,0.2-1.5,0.5c-0.4,0.3-0.8,0.7-1,1.2c-0.2,0.5-0.3,1-0.2,1.5c0.1,0.5,0.4,1,0.7,1.4c0.4,0.4,0.9,0.6,1.4,0.7
	c0.5,0.1,1.1,0,1.6-0.2c0.5-0.2,0.9-0.5,1.2-1c0.3-0.4,0.4-1,0.4-1.5c0-0.7-0.3-1.4-0.8-1.9C578.1,242,577.5,241.7,576.8,241.6
	L576.8,241.6z"/>
<path class="st11" d="M538.4,287.5c-0.7,0-1.4-0.2-2-0.6c-0.6-0.4-1.1-1-1.4-1.7s-0.4-1.4-0.2-2.1c0.1-0.7,0.5-1.4,1-1.9
	c0.5-0.5,1.2-0.9,1.9-1c0.7-0.1,1.5-0.1,2.1,0.2c0.7,0.3,1.2,0.8,1.7,1.4c0.4,0.6,0.6,1.3,0.6,2c0,1-0.4,1.9-1.1,2.6
	C540.3,287.1,539.4,287.5,538.4,287.5L538.4,287.5z M538.4,281.1c-0.5,0-1,0.2-1.5,0.5c-0.4,0.3-0.8,0.7-1,1.2
	c-0.2,0.5-0.3,1-0.2,1.5c0.1,0.5,0.4,1,0.7,1.4s0.9,0.6,1.4,0.7c0.5,0.1,1.1,0.1,1.5-0.2c0.5-0.2,0.9-0.5,1.2-1
	c0.3-0.4,0.5-1,0.5-1.5c0-0.7-0.3-1.4-0.8-1.9C539.8,281.4,539.1,281.1,538.4,281.1z"/>
<path class="st11" d="M576.8,287.5c-0.7,0-1.4-0.2-2-0.6c-0.6-0.4-1.1-1-1.4-1.7s-0.3-1.4-0.2-2.1c0.1-0.7,0.5-1.4,1-1.9
	c0.5-0.5,1.2-0.9,1.9-1c0.7-0.1,1.5-0.1,2.1,0.2c0.7,0.3,1.2,0.8,1.7,1.4c0.4,0.6,0.6,1.3,0.6,2c0,1-0.4,1.9-1.1,2.6
	C578.7,287.1,577.7,287.5,576.8,287.5z M576.8,281.1c-0.5,0-1,0.2-1.5,0.5c-0.4,0.3-0.8,0.7-1,1.2c-0.2,0.5-0.3,1-0.2,1.5
	c0.1,0.5,0.4,1,0.7,1.4s0.9,0.6,1.4,0.7c0.5,0.1,1.1,0.1,1.5-0.2c0.5-0.2,0.9-0.5,1.2-1c0.3-0.4,0.5-1,0.5-1.5
	c0-0.7-0.3-1.4-0.8-1.9C578.1,281.4,577.5,281.1,576.8,281.1z"/>
<path class="st11" d="M556.7,256.2h-7.2v-3.4h18.4v3.4h-7.2v18.3h-4L556.7,256.2z"/>
<path class="st9" d="M579.6,91.4c0,0,0.3,0,0.9-0.2c0.9-0.2,1.7-0.7,2.3-1.4c0.4-0.5,0.7-1.1,0.9-1.7c0.2-0.8,0.2-1.5,0.1-2.3
	c-0.1-1.6,0.4-3.8-1.1-5.3c-0.7-0.8-1.7-1.3-2.8-1.4c-1.1,0-2.4,0-3.6,0h-8H550c-0.8,0-1.5,0.2-2.2,0.6c-0.6,0.4-1.2,1-1.5,1.6
	c-0.3,0.7-0.5,1.4-0.5,2.2v2.3c0,0.7,0,1.5,0.1,2.2c0.2,0.7,0.5,1.3,1,1.8c0.5,0.5,1.1,0.9,1.8,1.1c0.7,0.2,1.3,0.2,2,0.2l15,0.1
	l10.1,0.1h2.8h0.7L579.6,91.4c-0.1-0.1-0.2-0.1-0.3-0.1h-0.7l-2.8,0.1l-10.1,0.1l-15,0.1c-0.7,0.1-1.5,0-2.2-0.2
	c-0.8-0.2-1.4-0.6-2-1.2c-0.5-0.6-0.9-1.3-1.1-2c-0.1-0.4-0.2-0.8-0.2-1.2v-3.3c0-0.6,0.1-1.3,0.3-1.9c0.2-0.6,0.6-1.1,1-1.6
	c0.4-0.5,1-0.8,1.5-1.1c0.6-0.3,1.2-0.4,1.8-0.4h18.3h8c1.3,0,2.4,0,3.6,0c1.2,0.1,2.2,0.7,3,1.5c0.7,0.8,1.1,1.8,1.1,2.9
	c0,1,0,1.9,0,2.7c0.1,0.8,0,1.6-0.2,2.4c-0.2,0.8-0.7,1.5-1.3,2c-0.6,0.5-1.3,0.9-2.1,1.1C580.2,91.4,579.9,91.4,579.6,91.4
	L579.6,91.4z"/>
<path class="st10" d="M291.8,103.3h-20c-1.9,0-3.5,1.6-3.5,3.5v11.3c0,1.9,1.6,3.5,3.5,3.5h20c1.9,0,3.5-1.6,3.5-3.5v-11.3
	C295.4,104.9,293.8,103.3,291.8,103.3z"/>
<path class="st2" d="M280.5,116.1h-6v-7.4h6V116.1z M275.5,115.1h4v-5.4h-4V115.1z"/>
<path class="st2" d="M278.5,107.9h-2v1.3h2V107.9z"/>
<path class="st2" d="M281.4,108.7h-7.8v1h7.8V108.7z"/>
<path class="st2" d="M291.1,109.4c0,0.2-0.1,0.4-0.2,0.6c-0.1,0.2-0.3,0.3-0.4,0.4c-0.2,0.1-0.4,0.1-0.6,0.1c-0.2,0-0.4-0.1-0.5-0.3
	c-0.1-0.1-0.2-0.3-0.3-0.5c0-0.2,0-0.4,0.1-0.6c0.1-0.2,0.2-0.3,0.4-0.4c0.2-0.1,0.4-0.2,0.6-0.2c0.3,0,0.5,0.1,0.7,0.3
	C291,108.9,291.1,109.2,291.1,109.4z"/>
<path class="st2" d="M291.1,112.1c0,0.2-0.1,0.4-0.2,0.6c-0.1,0.2-0.3,0.3-0.4,0.4c-0.2,0.1-0.4,0.1-0.6,0.1c-0.2,0-0.4-0.1-0.5-0.3
	c-0.1-0.1-0.2-0.3-0.3-0.5c0-0.2,0-0.4,0.1-0.6c0.1-0.2,0.2-0.3,0.4-0.4c0.2-0.1,0.4-0.2,0.6-0.2c0.3,0,0.5,0.1,0.7,0.3
	C291,111.6,291.1,111.8,291.1,112.1z"/>
<path class="st2" d="M291.1,114.8c0,0.2-0.1,0.4-0.2,0.6c-0.1,0.2-0.3,0.3-0.4,0.4c-0.2,0.1-0.4,0.1-0.6,0.1c-0.2,0-0.4-0.1-0.5-0.3
	c-0.1-0.1-0.2-0.3-0.3-0.5c0-0.2,0-0.4,0.1-0.6c0.1-0.2,0.2-0.3,0.4-0.4c0.2-0.1,0.4-0.2,0.6-0.2c0.3,0,0.5,0.1,0.7,0.3
	C291,114.3,291.1,114.5,291.1,114.8z"/>
<g class="st12">
	<path class="st13" d="M284.9,103.3h6.9c0.9,0,1.8,0.4,2.5,1c0.7,0.7,1,1.6,1,2.5v11.3c0,0.9-0.4,1.8-1,2.5c-0.7,0.7-1.6,1-2.5,1
		h-6.9V103.3z"/>
</g>
<path class="st11" d="M323.9,136.1H196.5v123.2h127.4V136.1z"/>
<path class="st10" d="M522,130.4H382.4c-2.3,0-4.1,1.8-4.1,4.1v10.1c0,2.3,1.8,4.1,4.1,4.1H522c2.3,0,4.1-1.8,4.1-4.1v-10.1
	C526.1,132.2,524.3,130.4,522,130.4z"/>
<g>
	<path class="st5" d="M431.2,133.8h-48.3v10.7h48.3V133.8z"/>
</g>
<path class="st2" d="M387.9,137.8h-1.7v-0.6h4.2v0.6h-1.7v4.4h-0.7V137.8z"/>
<path class="st2" d="M390.8,137.2c0-0.1,0.1-0.2,0.1-0.3c0.1-0.1,0.2-0.1,0.3-0.1s0.2,0,0.3,0.1c0.1,0.1,0.1,0.2,0.1,0.3
	s0,0.2-0.1,0.3c-0.1,0.1-0.2,0.1-0.3,0.1s-0.2-0.1-0.3-0.1C390.9,137.5,390.8,137.4,390.8,137.2L390.8,137.2z M390.9,138.4h0.7v3.8
	h-0.7V138.4z"/>
<path class="st2" d="M395.1,142c-0.2,0.2-0.5,0.3-0.8,0.3c-0.2,0-0.3,0-0.5-0.1c-0.2-0.1-0.3-0.1-0.4-0.3s-0.2-0.3-0.3-0.4
	c-0.1-0.2-0.1-0.3-0.1-0.5V139h-0.6v-0.6h0.6v-0.8h0.7v0.8h1.1v0.6h-1.1v2.1c0,0.1,0,0.2,0,0.2c0,0.1,0.1,0.2,0.1,0.2
	c0.1,0.1,0.1,0.1,0.2,0.1c0.1,0,0.2,0,0.2,0c0.2,0,0.4-0.1,0.5-0.2L395.1,142z"/>
<path class="st2" d="M395.9,136.9h0.7v5.4h-0.7V136.9z"/>
<path class="st2" d="M401.4,140.6h-3.1c0,0.3,0.2,0.6,0.5,0.8c0.3,0.2,0.6,0.3,0.9,0.3c0.2,0,0.4,0,0.6-0.1c0.2-0.1,0.4-0.2,0.5-0.4
	l0.4,0.4c-0.3,0.3-0.6,0.5-1,0.6c-0.4,0.1-0.8,0.1-1.2-0.1c-0.4-0.1-0.7-0.4-0.9-0.7c-0.2-0.3-0.4-0.7-0.4-1.1c0-0.3,0-0.5,0.1-0.8
	c0.1-0.2,0.2-0.5,0.4-0.7c0.2-0.2,0.4-0.3,0.6-0.4c0.2-0.1,0.5-0.1,0.8-0.1c0.3,0,0.5,0,0.8,0.1s0.5,0.2,0.6,0.4
	c0.2,0.2,0.3,0.4,0.4,0.7c0.1,0.2,0.1,0.5,0.1,0.8C401.4,140.4,401.4,140.5,401.4,140.6z M398.3,140.1h2.5c0-0.3-0.2-0.6-0.4-0.8
	c-0.2-0.2-0.5-0.3-0.8-0.3s-0.6,0.1-0.8,0.3C398.5,139.5,398.3,139.8,398.3,140.1z"/>
<path class="st2" d="M423.5,138.8h4.6l-2.3,2.3L423.5,138.8z"/>
<path class="st2" d="M445,140.7c0,0.9-0.8,1.5-2.2,1.5h-2.9v-5.3h2.7c1.4,0,2.1,0.6,2.1,1.4c0,0.2-0.1,0.5-0.2,0.7
	c-0.1,0.2-0.3,0.4-0.5,0.5c0.3,0.1,0.5,0.3,0.7,0.5C444.9,140.1,445,140.4,445,140.7z M441.4,138v1h1c0.5,0,0.8-0.2,0.8-0.5
	c0-0.3-0.3-0.5-0.8-0.5L441.4,138z M443.5,140.6c0-0.4-0.3-0.5-0.8-0.5h-1.3v1.1h1.3C443.2,141.1,443.5,140.9,443.5,140.6
	L443.5,140.6z"/>
<path class="st2" d="M453.3,136.8h0.4l-1.1,5.3h-0.4L453.3,136.8z"/>
<path class="st2" d="M462.2,133.7h-1v11.5h1V133.7z"/>
<path class="st2" d="M485.4,133.4h-1V145h1V133.4z"/>
<path class="st2" d="M506.9,133.7h-1v11.5h1V133.7z"/>
<path class="st2" d="M474,136.5h-6.3v1h6.3V136.5z"/>
<path class="st2" d="M474,140.2h-6.3v1h6.3V140.2z"/>
<path class="st2" d="M470.8,138.4h-3.2v1h3.2V138.4z"/>
<path class="st2" d="M477.8,138.8h3.3l-1.7,1.5L477.8,138.8z"/>
<path class="st2" d="M494.2,141.6h-5.8v-4.7h3v1h-2v2.7h3.8v-1h1V141.6z"/>
<path class="st2" d="M497.5,141.6h-2.5v-1h1.5v-2.7h-3.8v1.3h-1v-2.3h5.8V141.6z"/>
<path class="st2" d="M499.9,138.9h3.1l-1.5,1.4L499.9,138.9z"/>
<path class="st2" d="M517.6,142.9h-5.3v-6.5h5.3V142.9z M513.3,141.9h3.3v-4.5h-3.3V141.9z"/>
<path class="st2" d="M515.8,135.8h-1.7v1.1h1.7V135.8z"/>
<path class="st2" d="M518.3,136.4h-6.8v1h6.8V136.4z"/>
<path class="st10" d="M454.5,147.6l5.9,6.5l5.7-6.6L454.5,147.6z"/>
<path class="st5" d="M552.4,163.2h-83.2v34.5h83.2V163.2z"/>
<path class="st1" d="M188.5,93.7c4.7,0,8.5-3.8,8.5-8.5c0-4.7-3.8-8.5-8.5-8.5c-4.7,0-8.5,3.8-8.5,8.5
	C180,89.8,183.8,93.7,188.5,93.7z"/>
<path class="st9" d="M598.8,43.7c0,1.6,0.1,101,0.2,260.4v0.2h-0.2H424.9l0.2-0.1l-14,14.8l-0.2,0.2l-0.2-0.2l-16.1-14.8l0.2,0.1
	H159h-6.4V304c0-92.2,0-180.1,0-260.4v-0.2h0.2L598.8,43.7L152.9,44l0.2-0.2c0,80.2,0,168.2,0,260.4l-0.3-0.3h242l0.1,0.1l16.1,14.8
	h-0.3l14-14.8l0.1-0.1h0.1h173.9l-0.2,0.2C598.7,144.7,598.8,45.3,598.8,43.7z"/>
<path class="st9" d="M697.7,472.6c0,0.1-140.9,0.3-314.7,0.3s-314.7-0.1-314.7-0.3s140.9-0.3,314.7-0.3S697.7,472.5,697.7,472.6z"/>
<path class="st1" d="M319.7,446.5h-25.1v25.9h25.1V446.5z"/>
<path class="st9" d="M309.3,447.2c0,0-0.3,0.1-0.8,0.4c-0.7,0.4-1.4,0.9-2,1.4c-2,1.7-3.7,3.9-5,6.2c-0.8,1.4-1.4,2.7-2,3.9
	c-0.5,1.1-1.2,2.1-2,3c-0.6,0.6-1.2,1.1-2,1.5c-0.3,0.1-0.6,0.2-0.9,0.3c0,0,0.3-0.1,0.8-0.4c0.7-0.4,1.4-0.9,1.9-1.5
	c1.4-1.5,2.4-4.3,4-7c1.3-2.4,3-4.5,5.1-6.2c0.6-0.5,1.3-1,2.1-1.3C308.8,447.4,309,447.3,309.3,447.2L309.3,447.2z"/>
<path class="st9" d="M308.9,463.9l0.5-0.4c0.3-0.3,0.8-0.6,1.3-1.2c0.3-0.3,0.6-0.6,0.9-0.9c0.4-0.3,0.6-0.8,0.7-1.3
	c0-0.1-0.1-0.3-0.2-0.4c-0.1-0.1-0.2-0.2-0.3-0.3c-0.1-0.1-0.3-0.1-0.4-0.1c-0.1,0-0.3,0-0.4,0c-0.6,0.2-1.2,0.5-1.7,1
	c-1.3,0.8-2.4,1.8-3.4,2.9c-0.6,0.6-1,1.3-1.4,2.1c-0.2,0.4-0.2,0.8-0.1,1.2c0.1,0.2,0.2,0.4,0.3,0.5c0.1,0.2,0.3,0.3,0.5,0.3
	c0.9,0.2,1.8,0.2,2.7-0.2c0.9-0.4,1.7-0.9,2.5-1.5c1.6-1.2,2.9-2.9,3.7-4.8c0.4-1,0.5-2,0.4-3c0-0.5-0.2-1-0.4-1.4
	c-0.3-0.4-0.7-0.7-1.1-0.9c-0.5-0.1-1-0.1-1.4,0c-0.5,0.1-0.9,0.3-1.3,0.6c-0.8,0.5-1.6,1-2.3,1.7c-2.7,2.5-4.4,5.4-6.1,7.6
	c-1.3,1.8-3,3.3-4.9,4.4c-0.5,0.3-1.1,0.5-1.6,0.7c-0.2,0.1-0.4,0.1-0.6,0.1l0.1-0.1l0.4-0.1c0.6-0.2,1.1-0.4,1.6-0.7
	c1.9-1.1,3.5-2.6,4.8-4.4c1.8-2.1,3.4-5.1,6.1-7.6c0.7-0.6,1.5-1.2,2.3-1.7c0.4-0.3,0.9-0.5,1.4-0.6c0.5-0.1,1-0.1,1.5,0
	c0.5,0.2,0.9,0.5,1.2,1c0.3,0.5,0.4,1,0.5,1.5c0.1,1.1,0,2.1-0.4,3.1c-0.8,1.9-2.1,3.6-3.8,4.9c-0.8,0.6-1.6,1.1-2.5,1.5
	c-0.9,0.4-1.9,0.5-2.8,0.2c-0.2-0.1-0.4-0.2-0.6-0.4c-0.2-0.2-0.3-0.4-0.4-0.6c-0.1-0.5,0-0.9,0.2-1.4c0.4-0.8,0.8-1.5,1.4-2.1
	c1-1.1,2.2-2.1,3.5-2.9c0.5-0.4,1.1-0.8,1.8-1c0.1,0,0.3-0.1,0.5,0c0.2,0,0.3,0.1,0.4,0.2c0.1,0.1,0.2,0.2,0.3,0.3
	c0.1,0.1,0.2,0.3,0.2,0.4c0,0.3-0.1,0.5-0.2,0.8c-0.1,0.2-0.3,0.4-0.5,0.6c-0.3,0.4-0.6,0.7-0.9,0.9
	C310.2,462.9,309.5,463.4,308.9,463.9z"/>
<path class="st9" d="M319.5,451c0,0-0.1,0.3-0.2,1c-0.2,0.9-0.3,1.8-0.4,2.7c-0.1,1.1-0.2,2.5-0.4,4c-0.7,4.7-3.2,8.9-6.9,11.8
	c-1,0.8-2.1,1.4-3.2,1.9c0,0,0.1-0.1,0.2-0.1l0.7-0.4c3.4-1.9,6.1-4.9,7.7-8.5c1.5-3.2,1.6-6.5,1.9-8.8c0.1-0.9,0.3-1.8,0.5-2.7
	C319.3,451.6,319.4,451.3,319.5,451L319.5,451z"/>
<path class="st9" d="M300,447.1c0,0.2,0,0.3,0,0.5c0,0.4-0.1,0.8-0.2,1.2c-0.6,2.7-1.9,5.2-3.8,7.2c-0.3,0.3-0.6,0.6-0.9,0.9
	c-0.1,0.1-0.2,0.2-0.4,0.3c0,0,0.5-0.5,1.2-1.2c0.9-1,1.7-2.1,2.4-3.4c0.6-1.2,1.1-2.5,1.5-3.8C299.9,447.8,300,447.1,300,447.1z"/>
<path class="st1" d="M319.7,414.4h-25.1v25.1h25.1V414.4z"/>
<path class="st9" d="M305.4,415.5c0,0.2-0.1,0.4-0.1,0.6c-0.1,0.6-0.3,1.1-0.6,1.7c-0.8,1.8-1.8,3.5-3.2,4.9
	c-1.3,1.4-2.9,2.6-4.7,3.5c-0.5,0.3-1.1,0.5-1.6,0.7l-0.6,0.2c0.2-0.1,0.4-0.2,0.6-0.3c0.4-0.1,0.9-0.4,1.6-0.8
	c1.7-0.9,3.3-2.1,4.6-3.5c1.3-1.4,2.4-3.1,3.2-4.9c0.2-0.5,0.5-1.1,0.6-1.7C305.2,415.9,305.3,415.7,305.4,415.5z"/>
<path class="st9" d="M310.6,423.6c-0.4,0.8-0.9,1.6-1.5,2.3c-1.5,2-3.5,3.6-5.7,4.8c-0.7,0.4-1.5,0.7-2.3,1
	c-0.8,0.4-1.8,0.5-2.7,0.3c-0.2-0.1-0.4-0.2-0.6-0.4c-0.2-0.2-0.2-0.4-0.3-0.7c0-0.5,0.1-1,0.3-1.5c0.5-0.9,1-1.8,1.6-2.6
	c2.7-3.7,6.8-6.2,11.3-7c0.6-0.1,1.2-0.2,1.8-0.2c0.6-0.1,1.2,0,1.8,0.1c0.6,0.1,1.1,0.4,1.5,0.9c0.3,0.5,0.5,1.1,0.5,1.7
	c0,2.2-0.9,4.4-2.5,6c-1.4,1.4-3,2.6-4.8,3.5c-1.5,0.8-3.1,1.5-4.7,2.1c-2.9,1.1-5.4,1.9-7,2.4l-2,0.6c-0.4,0.1-0.7,0.2-0.7,0.2
	l0.7-0.2l1.9-0.6c1.7-0.5,4.1-1.3,7-2.4c1.6-0.6,3.1-1.4,4.7-2.1c1.8-0.9,3.3-2.1,4.7-3.5c1.5-1.6,2.4-3.6,2.4-5.8
	c0-0.6-0.2-1.1-0.5-1.5c-0.4-0.4-0.9-0.7-1.4-0.8c-0.6-0.1-1.2-0.1-1.7,0c-2.5,0.2-5,0.9-7.3,2.1c-2.2,1.2-4.2,2.9-5.7,5
	c-0.6,0.8-1.1,1.7-1.6,2.6c-0.2,0.4-0.3,0.9-0.3,1.3c0,0.2,0.1,0.4,0.2,0.6c0.1,0.2,0.3,0.3,0.5,0.4c0.9,0.2,1.8,0.1,2.5-0.3
	c0.8-0.3,1.5-0.6,2.3-1c2.2-1.1,4.1-2.7,5.7-4.7c0.5-0.7,0.9-1.3,1.2-1.6S310.6,423.6,310.6,423.6z"/>
<path class="st9" d="M319.5,430.7c0,0,0,0.1-0.1,0.2l-0.3,0.4c-0.4,0.5-0.9,1-1.4,1.5c-3.2,3.1-7.1,5.3-11.3,6.4
	c-0.6,0.2-1.3,0.3-1.9,0.4l-0.5,0.1h-0.2c0,0,0.1,0,0.2-0.1l0.5-0.1c0.5-0.1,1.1-0.3,1.9-0.5c2.1-0.6,4.1-1.5,6-2.5
	c1.9-1.1,3.7-2.4,5.3-3.9c0.6-0.6,1.1-1,1.4-1.4l0.4-0.4L319.5,430.7z"/>
<path class="st1" d="M529.8,414.4h-25.1v25.1h25.1V414.4z"/>
<path class="st9" d="M515.5,415.5c0,0.2-0.1,0.4-0.1,0.6c-0.1,0.6-0.3,1.1-0.6,1.7c-0.8,1.8-1.8,3.5-3.2,4.9
	c-1.3,1.4-2.9,2.6-4.7,3.5c-0.5,0.3-1.1,0.5-1.6,0.7l-0.6,0.2c0.2-0.1,0.4-0.2,0.6-0.3c2.4-1,4.5-2.4,6.2-4.3
	c1.3-1.4,2.4-3.1,3.2-4.9c0.2-0.5,0.5-1.1,0.6-1.7C515.3,415.9,515.4,415.7,515.5,415.5z"/>
<path class="st9" d="M520.7,423.6c-0.4,0.8-0.9,1.6-1.5,2.3c-1.5,2-3.5,3.6-5.7,4.8c-0.7,0.4-1.5,0.7-2.3,1
	c-0.8,0.4-1.8,0.5-2.7,0.3c-0.2-0.1-0.4-0.2-0.6-0.4c-0.2-0.2-0.2-0.4-0.3-0.7c0-0.5,0.1-1,0.3-1.5c0.4-0.9,1-1.8,1.6-2.6
	c2.7-3.7,6.8-6.2,11.3-7c0.6-0.1,1.2-0.2,1.8-0.2c0.6-0.1,1.2,0,1.8,0.1c0.6,0.1,1.1,0.4,1.5,0.9c0.3,0.5,0.5,1.1,0.6,1.7
	c0,2.2-0.9,4.4-2.5,6c-1.4,1.4-3,2.6-4.8,3.5c-1.5,0.8-3.1,1.5-4.7,2.1c-2.9,1.1-5.4,1.9-7,2.4l-2,0.6c-0.4,0.1-0.7,0.2-0.7,0.2
	l0.7-0.2l1.9-0.6c1.7-0.5,4.1-1.3,7-2.4c1.6-0.6,3.1-1.4,4.7-2.1c1.8-0.9,3.4-2.1,4.7-3.5c1.5-1.6,2.4-3.6,2.4-5.8
	c0-0.6-0.2-1.1-0.5-1.5c-0.3-0.4-0.9-0.7-1.4-0.8c-0.6-0.1-1.2-0.1-1.7,0c-2.5,0.2-5,0.9-7.3,2.1c-2.2,1.2-4.2,2.9-5.7,5
	c-0.6,0.8-1.1,1.7-1.6,2.6c-0.2,0.4-0.3,0.9-0.3,1.3c0,0.2,0.1,0.4,0.2,0.6c0.1,0.2,0.3,0.3,0.5,0.4c0.9,0.2,1.8,0.1,2.5-0.3
	c0.8-0.3,1.5-0.6,2.3-1c2.2-1.1,4.1-2.7,5.7-4.7c0.6-0.7,0.9-1.3,1.2-1.6C520.6,423.8,520.7,423.6,520.7,423.6z"/>
<path class="st9" d="M529.6,430.7c0,0,0,0.1-0.1,0.2l-0.3,0.4c-0.4,0.5-0.9,1-1.4,1.5c-3.2,3.1-7.1,5.3-11.3,6.4
	c-0.7,0.2-1.3,0.3-2,0.4l-0.5,0.1h-0.2c0,0,0.1,0,0.2-0.1l0.5-0.1c0.5-0.1,1.1-0.3,1.9-0.5c2.1-0.6,4.1-1.5,6-2.5
	c1.9-1.1,3.7-2.4,5.3-3.9c0.6-0.6,1.1-1,1.4-1.4l0.4-0.4L529.6,430.7z"/>
<path class="st1" d="M529.8,446.5h-25.1v25.9h25.1V446.5z"/>
<path class="st9" d="M519.4,447.2c0,0-0.3,0.1-0.8,0.4c-0.7,0.4-1.4,0.9-2,1.4c-2,1.7-3.7,3.9-5,6.2c-0.8,1.4-1.4,2.7-2,3.9
	c-0.5,1.1-1.2,2.1-2,3c-0.5,0.6-1.2,1.1-1.9,1.5c-0.3,0.1-0.6,0.2-0.9,0.3c0,0,0.3-0.1,0.8-0.4c0.7-0.4,1.4-0.9,1.9-1.5
	c1.4-1.5,2.4-4.3,4-7c1.3-2.4,3-4.5,5.1-6.2c0.6-0.5,1.3-1,2-1.3C518.9,447.4,519.1,447.3,519.4,447.2L519.4,447.2z"/>
<path class="st9" d="M519,463.9l0.5-0.4c0.3-0.3,0.8-0.6,1.3-1.2c0.3-0.3,0.6-0.6,0.9-0.9c0.4-0.3,0.6-0.8,0.7-1.3
	c0-0.1-0.1-0.3-0.2-0.4c-0.1-0.1-0.2-0.2-0.3-0.3c-0.1-0.1-0.3-0.1-0.4-0.1c-0.1,0-0.3,0-0.4,0c-0.6,0.2-1.2,0.5-1.7,1
	c-1.3,0.8-2.4,1.8-3.5,2.9c-0.6,0.6-1,1.3-1.4,2.1c-0.2,0.4-0.2,0.8-0.1,1.2c0.1,0.2,0.2,0.4,0.3,0.5c0.1,0.2,0.3,0.3,0.5,0.3
	c0.9,0.2,1.8,0.2,2.7-0.2c0.9-0.4,1.7-0.9,2.5-1.5c1.7-1.2,2.9-2.9,3.7-4.8c0.4-1,0.5-2,0.4-3c0-0.5-0.2-1-0.4-1.4
	c-0.3-0.4-0.7-0.7-1.1-0.9c-0.5-0.1-1-0.1-1.4,0c-0.5,0.1-0.9,0.3-1.3,0.6c-0.8,0.5-1.6,1-2.3,1.7c-2.7,2.5-4.4,5.4-6.1,7.6
	c-1.3,1.8-3,3.3-4.9,4.4c-0.5,0.3-1.1,0.5-1.7,0.7c-0.2,0.1-0.4,0.1-0.6,0.1l0.1-0.1l0.4-0.1c0.6-0.2,1.1-0.4,1.6-0.7
	c1.9-1.1,3.5-2.6,4.8-4.4c1.8-2.1,3.4-5.1,6.1-7.6c0.7-0.6,1.5-1.2,2.3-1.7c0.4-0.3,0.9-0.5,1.4-0.6c0.5-0.1,1-0.1,1.5,0
	c0.5,0.2,0.9,0.5,1.2,1c0.3,0.5,0.4,1,0.5,1.5c0.1,1.1,0,2.1-0.4,3.1c-0.8,1.9-2.1,3.6-3.8,4.9c-0.8,0.6-1.6,1.1-2.5,1.5
	c-0.9,0.4-1.9,0.5-2.8,0.2c-0.2-0.1-0.5-0.2-0.6-0.4c-0.2-0.2-0.3-0.4-0.4-0.6c-0.1-0.5,0-0.9,0.2-1.4c0.4-0.8,0.8-1.5,1.4-2.1
	c1-1.1,2.2-2.1,3.5-2.9c0.5-0.4,1.1-0.8,1.8-1c0.2,0,0.3-0.1,0.5,0c0.2,0,0.3,0.1,0.4,0.2c0.1,0.1,0.2,0.2,0.3,0.3
	c0.1,0.1,0.2,0.3,0.2,0.4c0,0.3-0.1,0.5-0.2,0.8c-0.1,0.2-0.3,0.4-0.5,0.6c-0.3,0.4-0.6,0.7-0.9,0.9
	C520.3,462.9,519.7,463.4,519,463.9L519,463.9z"/>
<path class="st9" d="M529.6,451c0,0-0.1,0.3-0.2,1c-0.2,0.9-0.3,1.8-0.4,2.7c-0.1,1.1-0.2,2.5-0.4,4c-0.2,1.7-0.7,3.3-1.4,4.8
	c-1.2,2.8-3.2,5.2-5.6,7c-1,0.8-2.1,1.4-3.2,1.9c0.1-0.1,0.1-0.1,0.2-0.1l0.7-0.3c3.4-1.9,6.1-4.9,7.7-8.5c1.5-3.2,1.5-6.5,1.9-8.8
	c0.1-0.9,0.3-1.8,0.5-2.7C529.4,451.6,529.5,451.3,529.6,451L529.6,451z"/>
<path class="st9" d="M510.1,447.1c0,0.2,0,0.3,0,0.5c0,0.4-0.1,0.8-0.2,1.2c-0.6,2.7-1.9,5.2-3.8,7.2c-0.3,0.3-0.6,0.6-0.9,0.9
	c-0.1,0.1-0.2,0.2-0.4,0.3c0,0,0.5-0.5,1.2-1.2c0.9-1,1.7-2.1,2.4-3.4c0.6-1.2,1.1-2.5,1.5-3.8C510,447.8,510.1,447.1,510.1,447.1z"
	/>
<path class="st1" d="M536,439.5H289v7.8H536V439.5z"/>
<path class="st9" d="M536,447.4c0,0.1-55.3,0.3-123.4,0.3s-123.5-0.1-123.5-0.3c0-0.1,55.3-0.3,123.5-0.3S536,447.2,536,447.4z"/>
<path class="st9" d="M536,439.5c0,0.1-55.3,0.3-123.4,0.3s-123.5-0.1-123.5-0.3s55.3-0.3,123.5-0.3S536,439.4,536,439.5z"/>
<path class="st1" d="M535.9,408.4H288.7v7.1h247.2V408.4z"/>
<path class="st9" d="M533.1,415.5c0,0.1-54.6,0.3-122,0.3s-122-0.1-122-0.3c0-0.1,54.6-0.3,122-0.3S533.1,415.3,533.1,415.5z"/>
<path class="st14" d="M467.9,401.9l-19.8-15.3l12.5-17.9l20.5,17.9c0,0-0.1,7.5-2.9,10.6C475.3,400.3,467.9,401.9,467.9,401.9z"/>
<path class="st4" d="M482.2,387.3l-1.5-1.4c-2.6,6.6-7.4,12.2-13.5,15.8l11,9.3l28.3-32.9C503.2,375.7,482.2,387.3,482.2,387.3z"/>
<path class="st9" d="M482.5,386.6c0.2,0.1-0.5,1-0.6,2.2c-0.2,1.2,0.1,2.2,0,2.3s-0.9-0.9-0.7-2.4S482.4,386.4,482.5,386.6z"/>
<path class="st9" d="M486.9,384.4c0.2,0.1-0.1,1,0.1,2.2c0.2,1.2,0.8,1.9,0.7,2.1c-0.2,0.2-1.1-0.5-1.4-1.9
	C486,385.2,486.8,384.2,486.9,384.4z"/>
<path class="st9" d="M492.7,386c-0.1,0.2-1.1-0.3-1.6-1.5c-0.5-1.2-0.2-2.2,0-2.2c0.2,0,0.3,0.9,0.7,1.9
	C492.3,385.2,492.9,385.8,492.7,386z"/>
<path class="st11" d="M366.1,355.5c0.1-0.6,29.6-25.7,32.9-27.7c4.1-2.5,14.1-3.7,19.3,0.8c4.8,4.2,46.3,38.8,46.3,38.8l-16.7,20.4
	l-36.1-28.2c0,0-34.2,20.6-34.6,21.1c-0.3,0.5-16.4-5.6-16.4-6.1C360.9,374.2,366.1,355.5,366.1,355.5z"/>
<path class="st9" d="M334.9,254.4c-0.6-4.4-0.9-8.9-0.8-13.4c0.1-4.5,1.4-8.9,3.7-12.8c0.4-0.6,3.2-4.4,3.8-4.2
	c0.5,0.1-1.5,3.8-1.4,4.3c1.4,4.5,1.3,9.3-0.1,13.7C338.8,246.3,337.1,250.5,334.9,254.4z"/>
<path class="st14" d="M339.4,293.6c-3.3-0.7-6.1-2.7-7.9-5.5c-1.8-2.8-2.5-6.2-1.8-9.5l8.2-41.1c1.9-11.1,9.9-19.3,20.9-17.1l1,0.3
	c4.9,1.3,9.2,4.3,11.9,8.6c2.8,4.3,3.8,9.4,2.9,14.4c-1.7,9.6-3.6,20.2-5,25.3c-2.8,10.5-13.7,9.4-13.7,9.4s-0.6,2.4-1.2,5.5
	c-0.4,1.7-1,3.2-2,4.6c-1,1.4-2.2,2.6-3.6,3.5c-1.4,0.9-3,1.5-4.7,1.8C342.7,294,341,293.9,339.4,293.6L339.4,293.6z"/>
<path class="st15" d="M355.9,278.3c-4.8-1.3-9.2-3.9-12.6-7.5c0,0,1.4,8.5,12.1,10.2L355.9,278.3z"/>
<path class="st15" d="M352.5,259.5c0.3-0.2,0.6-0.3,1-0.4c0.3-0.1,0.7,0,1,0.1c0.3,0.1,0.6,0.3,0.9,0.5c0.3,0.2,0.5,0.5,0.6,0.9
	c0.1,0.3,0.2,0.7,0.2,1c0,0.3-0.1,0.7-0.3,1c-0.2,0.3-0.4,0.6-0.7,0.8c-0.3,0.2-0.6,0.3-1,0.4c-0.6,0.1-1.3,0-1.8-0.4
	c-0.4-0.2-0.8-0.6-1-1c-0.1-0.3-0.2-0.7-0.1-1c0-0.4,0.2-0.7,0.4-1c0.3-0.5,0.8-0.9,1.3-1.1"/>
<path class="st9" d="M369.7,251.7c-0.1,0.4-0.3,0.7-0.7,0.9c-0.3,0.2-0.8,0.3-1.1,0.2c-0.2,0-0.4-0.1-0.5-0.2
	c-0.2-0.1-0.3-0.2-0.4-0.4c-0.1-0.2-0.2-0.3-0.2-0.5c0-0.2,0-0.4,0-0.6c0.1-0.4,0.3-0.7,0.7-0.9c0.3-0.2,0.8-0.3,1.1-0.2
	c0.2,0,0.4,0.1,0.5,0.2c0.2,0.1,0.3,0.2,0.4,0.4c0.1,0.2,0.2,0.3,0.2,0.5C369.7,251.3,369.7,251.5,369.7,251.7L369.7,251.7z"/>
<path class="st9" d="M371.1,248.1c-0.2,0.1-1.1-1-2.8-1.4c-1.6-0.4-3,0.1-3.1-0.1c-0.1-0.2,0.2-0.4,0.8-0.7c0.8-0.3,1.7-0.3,2.6-0.1
	c0.8,0.2,1.6,0.7,2.1,1.3C371.1,247.6,371.2,248,371.1,248.1z"/>
<path class="st9" d="M355.1,248.4c-0.1,0.4-0.3,0.7-0.7,0.9s-0.8,0.3-1.1,0.2c-0.2,0-0.4-0.1-0.5-0.2c-0.2-0.1-0.3-0.2-0.4-0.4
	c-0.1-0.2-0.2-0.3-0.2-0.5c0-0.2,0-0.4,0-0.6c0.1-0.4,0.3-0.7,0.7-0.9c0.3-0.2,0.8-0.3,1.1-0.2c0.2,0,0.4,0.1,0.5,0.2
	c0.2,0.1,0.3,0.2,0.4,0.4c0.1,0.2,0.2,0.3,0.2,0.5C355.1,248,355.1,248.2,355.1,248.4L355.1,248.4z"/>
<path class="st9" d="M355.5,244.5c-0.2,0.1-1.2-1-2.8-1.4c-1.6-0.4-3,0.1-3.1-0.2c-0.1-0.2,0.2-0.4,0.8-0.7c0.8-0.3,1.7-0.3,2.6-0.1
	c0.8,0.2,1.6,0.7,2.1,1.4C355.5,244,355.6,244.4,355.5,244.5z"/>
<path class="st9" d="M357.9,257.8c0.9-0.1,1.8,0,2.7,0.2c0.4,0.1,0.8,0.1,1-0.2c0.1-0.4,0.1-0.9,0-1.3c-0.1-1.1-0.3-2.3-0.4-3.4
	c-0.6-4.9-0.8-8.9-0.6-8.9c0.2,0,0.8,3.9,1.3,8.8c0.1,1.2,0.2,2.4,0.4,3.4c0.1,0.6,0.1,1.2-0.2,1.7c-0.1,0.1-0.2,0.2-0.4,0.3
	c-0.1,0.1-0.3,0.1-0.5,0.1c-0.2,0-0.5,0-0.7-0.1C359.6,258.4,358.7,258.2,357.9,257.8L357.9,257.8z"/>
<path class="st9" d="M352.9,257.7c0.3,0.1-0.2,1.8,1,3.4s3.1,1.9,3,2.2s-0.5,0.2-1.3,0c-1-0.2-1.9-0.8-2.6-1.7
	c-0.6-0.8-0.9-1.8-0.7-2.9C352.5,258.1,352.8,257.7,352.9,257.7z"/>
<path class="st9" d="M357.2,238.2c-0.3,0.4-1.8-0.2-3.8-0.5c-2-0.3-3.6-0.1-3.8-0.6c-0.1-0.2,0.3-0.6,1-0.8c1-0.3,2-0.4,3-0.3
	c1,0.1,2,0.5,2.8,1.1C357,237.6,357.3,238,357.2,238.2z"/>
<path class="st9" d="M371.6,243.3c-0.4,0.3-1.4-0.4-2.7-0.7c-1.3-0.4-2.5-0.4-2.7-0.8c-0.1-0.2,0.2-0.5,0.8-0.8
	c0.8-0.2,1.6-0.3,2.4,0c0.8,0.2,1.5,0.7,2,1.3C371.7,242.8,371.8,243.2,371.6,243.3z"/>
<path class="st14" d="M336.7,245.5c-0.2-0.1-6.7-4-8.3,3.2c-1.6,7.2,6,7.3,6,7.2C334.4,255.7,336.7,245.5,336.7,245.5z"/>
<path class="st15" d="M332.8,252.7c0,0-0.1,0.1-0.4,0.1c-0.3,0.1-0.7,0-1-0.2c-0.4-0.4-0.7-0.9-0.8-1.5c-0.1-0.5-0.1-1.1,0-1.7
	c0.1-0.6,0.4-1.2,0.8-1.7c0.1-0.2,0.3-0.4,0.5-0.5c0.2-0.1,0.4-0.2,0.7-0.2c0.2,0,0.3,0,0.4,0.1c0.1,0.1,0.2,0.2,0.2,0.4
	c0.1,0.2,0,0.3,0,0.4s0.2-0.1,0.2-0.4c0-0.2-0.1-0.4-0.2-0.5c-0.2-0.2-0.4-0.3-0.6-0.3c-0.3,0-0.6,0.1-0.9,0.2
	c-0.3,0.1-0.5,0.4-0.7,0.6c-0.5,0.6-0.8,1.2-0.9,1.9c-0.3,1.5,0.2,3,1.1,3.5c0.2,0.1,0.4,0.2,0.6,0.2c0.2,0,0.4,0,0.6-0.1
	C332.8,252.9,332.9,252.7,332.8,252.7z"/>
<path class="st9" d="M372.7,230.8c1.3-0.4-1.6-5.1-4.2-7.1c-3.9-2.9-10.3-5.5-14.6-5.3c-5.1,0.3-9.7,1.9-13,5.8
	c-3.3,4-5.5,8.8-6.3,13.9c-0.4,1.5-0.4,3.1,0.1,4.6c0.7,1.8,2.4,3.2,1.9,5.3c-0.2,0.8-0.2,1.6,0.2,2.3c1,1.9,3,0.9,4-0.3
	c2.2-2.5,3.1-5.8,3.9-9c0.7-2.5,1.2-5.2,1.3-7.8c0-0.8,0-1.7,0.3-2.5c0.3-1.3,1-2.6,2-3.5c0.2-0.2,0.5-0.4,0.8-0.5
	c1-0.5,2.2-0.8,3.3-0.8c1.2,0,2.3,0.4,3.3,1c3.8,2.3,6.6,5.3,11.8,4.4c0.9-0.2,1.7-0.7,2.4-1.3c0.5-0.3,1-0.3,1.6-0.2
	C371.9,230,372.4,230.3,372.7,230.8L372.7,230.8z"/>
<path class="st9" d="M333.8,258.5c0,0,0,0.2-0.2,0.4c-0.1,0.1-0.3,0.2-0.5,0.2c-0.2,0-0.4,0.1-0.6,0c-0.5-0.1-1-0.3-1.4-0.7
	c-0.5-0.5-0.8-1.1-0.8-1.8c0-0.7,0.2-1.3,0.6-1.9c0.3-0.4,0.8-0.7,1.3-0.9c0.9-0.3,1.4,0,1.4,0.1c0,0.1-0.5,0-1.3,0.4
	c-0.4,0.2-0.8,0.5-1.1,0.9s-0.4,0.9-0.4,1.4c0,0.5,0.2,0.9,0.5,1.3c0.3,0.4,0.7,0.6,1.2,0.7c0.3,0.1,0.6,0.1,0.9,0
	C333.7,258.6,333.8,258.5,333.8,258.5z"/>
<path class="st14" d="M437.1,356.4l-19.3-12.7l-6.8,5.1l-46.8-2.1v1.3l-2.9,15.6l58.1-3.5c0,0,3.4,2.6,4.9,2
	c1.5-0.6,2.9-1.3,2.9-1.3l2.3,0.7c0.8-0.1,1.5-0.4,2.2-0.9c0.6-0.4,1.2-1,1.6-1.7c0,0,3.2,3.4,4.9,3.5
	C439.8,362.6,437.1,356.4,437.1,356.4z"/>
<path class="st10" d="M331,275.8c0,0-6.9,0.8-11.6,4.1c-7.5,5.3-15.3,17.4-17.9,34.3c-2.2,14-0.8,29.1-1.4,39.4
	c-1,15.6-1.1,22.6,0,26.1c1.7,5.7,4.9,25.4,17.8,27.4c2.7-3.9,4.8-8.2,6.2-12.7c1.7-6.5,7.7-24.5,24.3-26.7
	c1.5-0.2,18.2-2.7,18.2-2.7s-1.1-16.1-1.1-22.5c0-3.2,1-9.1,2.1-14.3c1.4-6.6-0.5-13.7-2.3-20.2c-1.8-6.5-3.2-15.3-4.4-17.6
	c-1.6-2.8-4-5-6.9-6.5L331,275.8z"/>
<path class="st14" d="M331,275.8c0,0,8.6,10.1,13,21.8c3.1,8.2,14,29.6,14,29.6s-0.4-15.5-1.4-23.6c-1.4-11.9-2.1-19.2-2.1-19.2
	l-11.1-6L331,275.8z"/>
<path class="st9" d="M343.8,368.3c-0.5,0-1.1,0-1.6,0c-1.5,0-2.9,0.2-4.4,0.5c-2.1,0.4-4.2,1.1-6.2,2c-2.5,1.1-4.7,2.5-6.8,4.2
	c-3.6,3.3-6.6,7.1-9.1,11.3c-1,1.5-1.8,2.8-2.4,3.8c-0.3,0.5-0.6,0.9-0.9,1.4c0.2-0.5,0.5-1,0.7-1.5c0.5-0.9,1.3-2.2,2.2-3.8
	c2.5-4.3,5.5-8.1,9.1-11.5c2.1-1.7,4.4-3.2,6.9-4.2c2-0.9,4.2-1.5,6.3-1.9c1.5-0.3,3-0.4,4.4-0.3c0.4,0,0.8,0,1.2,0.1
	C343.5,368.2,343.7,368.2,343.8,368.3L343.8,368.3z"/>
<path class="st10" d="M304.2,318.2c0,0,5.6-34.6,21.1-35.9c15.6-1.3,13.9,17.1,13.2,25.9c-0.4,4.6-1,9.1-1.8,13.6L304.2,318.2z"/>
<path class="st9" d="M338,321.9h-0.6l-1.8-0.2l-6.8-0.6l-24.4-2.4h-0.3l0.1-0.3c1.4-4.2,2.3-8.9,3.4-13.9c1.1-4.9,2.6-10.1,5.6-14.8
	c2.3-3.7,5.8-6.6,9.9-8.2c2-0.7,4.1-0.9,6.2-0.6c2,0.3,3.9,1.3,5.2,2.9c1.2,1.5,2.2,3.1,2.9,4.8c0.4,0.8,0.7,1.7,0.8,2.6
	c0.1,0.9,0.3,1.7,0.4,2.6c0.4,3.1,0.6,6.3,0.7,9.5c0,4.6-0.2,9.1-0.6,13.7c-0.2,1.6-0.3,2.8-0.4,3.7c0,0.4-0.1,0.7-0.1,1
	c0,0.1,0,0.2,0,0.3c0,0,0-0.1,0-0.4c0-0.2,0-0.6,0.1-1c0.1-0.9,0.1-2.1,0.3-3.7c0.2-3.2,0.6-7.9,0.5-13.7c-0.1-3.1-0.3-6.3-0.7-9.4
	c-0.1-0.8-0.2-1.7-0.4-2.6c-0.2-0.9-0.5-1.7-0.8-2.5c-0.7-1.7-1.7-3.3-2.9-4.7c-1.2-1.5-3-2.4-4.9-2.7c-2-0.3-4-0.1-5.9,0.6
	c-4,1.5-7.4,4.3-9.6,8c-3,4.6-4.4,9.8-5.6,14.7c-1.2,4.9-2,9.6-3.4,13.9l-0.2-0.3l24.2,2.6l6.9,0.8l1.8,0.2l0.5,0.1L338,321.9z"/>
<path class="st14" d="M308.1,319c0,0-0.9,25.3,0.1,35.5c0.8,7.7,3.6,13.1,8.1,13.9s22.9-4.1,33.8-9.6c6.9-3.6,13.7-7.5,20.2-11.7
	l-0.8-10.3c0,0-20.3,4.6-23.8,5.1c-3.5,0.6-14.2,1.7-14.2,1.7c0-0.3,3.4-21.9,3.4-21.9L308.1,319z"/>
<path class="st14" d="M396.3,334.6c-0.9-0.9-22.7,1.6-26.3,2l-0.5,0.1l0.8,10.3h15.7l0.5,2.4c0,0-2-0.3-3.1,0.6
	c-1.1,0.9,3.5,1.8,4.5,1.9c2.8,0.4,4.2-2.4,4.2-2.4c2.2,1.5,4.3-1.3,4.3-1.3c1.8,1.3,3.3-1.5,3.3-1.5s2.9,3,4.5,3.4
	c1.1,0.2,2.2,0.2,3.3,0C407.3,350.1,397.3,335.6,396.3,334.6z"/>
<path class="st15" d="M392,349.2c-0.2,0-0.4-1.6-1.2-3.5c-0.6-1.1-1.2-2.1-1.8-3.1c1.1,0.7,1.9,1.7,2.3,2.9
	C391.8,346.7,392.1,348,392,349.2L392,349.2z"/>
<path class="st15" d="M392.1,340.2c0-0.1,0.5,0.2,1.1,0.8c0.8,0.8,1.4,1.8,1.8,2.9c0.5,1,0.8,2.1,1.1,3.2c0.2,0.9,0.1,1.4,0,1.4
	c-0.1,0-0.1-0.5-0.3-1.3s-0.8-1.9-1.3-3.1c-0.4-1-1-2-1.6-2.8C392.4,340.6,392,340.2,392.1,340.2z"/>
<path class="st15" d="M395.9,338.2c2,2.7,3.4,5.8,4,9.1c-0.1,0-0.8-2.1-1.9-4.6S395.7,338.3,395.9,338.2z"/>
<path class="st14" d="M408.2,458.2l-1.7-20.2h23.2l-0.7,19.8c0,0-6.3,5.3-10.6,5.2C414.2,462.8,408.2,458.2,408.2,458.2z"/>
<path class="st4" d="M429,459.8v-2c-6.7,2.5-14,2.6-20.8,0.4l0.3,14.4l43.3-0.8C451.6,467.7,429,459.8,429,459.8z"/>
<path class="st9" d="M429.7,459.5c0,0.2-1.1,0.3-2.1,1c-1,0.7-1.6,1.6-1.8,1.5c-0.2-0.1,0.1-1.3,1.4-2.1
	C428.5,459.1,429.8,459.4,429.7,459.5z"/>
<path class="st9" d="M434.3,461.4c0.1,0.2-0.9,0.6-1.6,1.5s-0.9,1.9-1.1,1.9s-0.4-1.2,0.5-2.3C433,461.3,434.3,461.1,434.3,461.4z"
	/>
<path class="st9" d="M437,466.8c-0.2,0-0.5-1,0-2.2c0.5-1.2,1.5-1.6,1.6-1.5c0.1,0.2-0.5,0.8-0.9,1.8
	C437.3,465.8,437.2,466.7,437,466.8z"/>
<path class="st9" d="M414.7,465.2c0,0.2-0.1,0.4-0.2,0.6c-0.1,0.2-0.3,0.3-0.5,0.4c-0.2,0.1-0.4,0.1-0.7,0.1c-0.2,0-0.4-0.2-0.6-0.3
	c-0.2-0.2-0.3-0.4-0.3-0.6c0-0.2,0-0.5,0.1-0.7c0.1-0.2,0.2-0.4,0.4-0.5c0.2-0.1,0.4-0.2,0.6-0.2c0.1,0,0.3,0,0.4,0.1
	c0.1,0.1,0.3,0.1,0.4,0.2c0.1,0.1,0.2,0.2,0.2,0.4S414.7,465,414.7,465.2z"/>
<path class="st11" d="M318.5,406.1c-0.2,0.3,18.5,3,34.5,2.2c16-0.8,49.7-13.3,49.7-13.3c-0.8,4.8-1.3,9.7-1.4,14.6
	c-0.1,6.7,3.3,29.4,3.3,29.4h27.7v-48.6c0,0-0.8-18.4-0.8-21.4c-0.1-4.6-5.5-11.1-14.4-10.6c-7.5,0.4-73.7,9.9-73.7,9.9
	s-10,3.2-14,8.5S318.5,406.1,318.5,406.1z"/>
<path class="st16" d="M328.6,390c-0.8,0.2-1.7,0.3-2.5,0.2c-0.8,0.1-1.7-0.1-2.5-0.4c0.8-0.2,1.7-0.3,2.5-0.2
	C327,389.6,327.8,389.7,328.6,390L328.6,390z"/>
<path class="st16" d="M338.6,389.5c-0.8,0.3-1.6,0.5-2.5,0.4c-0.8,0.1-1.7,0.1-2.5-0.1c0.8-0.3,1.6-0.5,2.5-0.4
	C336.9,389.3,337.8,389.3,338.6,389.5z"/>
<path class="st16" d="M348.5,388.2c-0.8,0.4-1.6,0.6-2.4,0.6c-0.8,0.2-1.7,0.3-2.5,0.1c0.8-0.4,1.6-0.6,2.4-0.6
	C346.8,388.1,347.7,388.1,348.5,388.2z"/>
<path class="st16" d="M358.3,386.3c-1.5,0.7-3.2,1-4.9,1C355,386.7,356.6,386.3,358.3,386.3L358.3,386.3z"/>
<path class="st16" d="M368.1,384.2c-1.5,0.7-3.2,1.1-4.9,1.1c0.7-0.4,1.5-0.7,2.4-0.8C366.4,384.2,367.2,384.1,368.1,384.2
	L368.1,384.2z"/>
<path class="st16" d="M377.8,382c-0.7,0.4-1.5,0.7-2.4,0.8c-0.8,0.3-1.7,0.4-2.5,0.3c0.7-0.4,1.5-0.7,2.4-0.8
	C376.1,382,377,381.9,377.8,382z"/>
<path class="st16" d="M387.6,380c-0.7,0.4-1.6,0.7-2.4,0.7c-0.8,0.2-1.7,0.3-2.5,0.2c0.7-0.4,1.6-0.7,2.4-0.7
	C385.9,380,386.8,379.9,387.6,380L387.6,380z"/>
<path class="st16" d="M397.5,378.4c-0.8,0.4-1.6,0.6-2.4,0.6c-0.8,0.2-1.7,0.2-2.5,0.1c0.8-0.4,1.6-0.6,2.4-0.6
	C395.8,378.3,396.7,378.3,397.5,378.4L397.5,378.4z"/>
<path class="st16" d="M407.5,377.8c-0.8,0.2-1.6,0.2-2.5,0.2c-0.8,0.1-1.7,0.1-2.5-0.1c0.8-0.3,1.6-0.5,2.5-0.4
	C405.8,377.4,406.7,377.5,407.5,377.8z"/>
<path class="st16" d="M413.2,384.6c-0.3-0.8-0.5-1.6-0.6-2.4c-0.3-1.3-0.9-2.2-0.8-2.3s1,0.8,1.3,2.2
	C413.4,382.9,413.4,383.8,413.2,384.6L413.2,384.6z"/>
<path class="st16" d="M413.6,394.6c-0.3-0.8-0.4-1.6-0.4-2.5c-0.1-0.8-0.1-1.7,0.1-2.5C413.8,391.3,413.9,393,413.6,394.6
	L413.6,394.6z"/>
<path class="st16" d="M414.1,404.6c-0.4-1.6-0.5-3.3-0.3-5c0.3,0.8,0.4,1.6,0.4,2.5C414.3,402.9,414.3,403.8,414.1,404.6
	L414.1,404.6z"/>
<path class="st16" d="M414.6,414.6c-0.4-1.6-0.5-3.3-0.3-5c0.3,0.8,0.4,1.6,0.4,2.5C414.9,412.9,414.8,413.8,414.6,414.6
	L414.6,414.6z"/>
<path class="st16" d="M415.2,424.6c-0.4-1.6-0.5-3.3-0.3-5c0.3,0.8,0.4,1.6,0.4,2.5C415.4,422.9,415.4,423.8,415.2,424.6
	L415.2,424.6z"/>
<path class="st16" d="M415.6,434.6c-0.3-0.8-0.4-1.6-0.4-2.5c-0.1-0.8-0.1-1.7,0.2-2.5c0.3,0.8,0.4,1.6,0.4,2.5
	C415.9,432.9,415.8,433.8,415.6,434.6L415.6,434.6z"/>
<path class="st16" d="M413,371.3c-0.5,1.2-1.1,2.4-1.7,3.5c-1.1,2.1-2.5,5.1-3.9,8.5c-1.4,3.4-2.6,6.5-3.3,8.7
	c-0.4,1.2-0.8,2.5-1.3,3.7c0-0.3,0.1-0.7,0.2-1c0.2-0.6,0.4-1.6,0.8-2.7c0.9-3,2-5.9,3.2-8.8c1.2-2.9,2.6-5.7,4.1-8.4
	c0.6-1.1,1.1-1.9,1.4-2.5C412.6,371.8,412.8,371.5,413,371.3L413,371.3z"/>
<path class="st16" d="M421.6,380.1c0,0.1-1.3,0.6-3.3,1.6c-2.7,1.4-5.2,3-7.5,4.9c-2.3,1.9-4.4,4.1-6.3,6.4c-1.4,1.8-2.2,3-2.3,3
	c0.1-0.3,0.3-0.6,0.5-0.9c0.5-0.8,1-1.6,1.5-2.3c1.8-2.4,3.9-4.6,6.2-6.6c2.3-1.9,4.9-3.5,7.7-4.8c0.8-0.4,1.7-0.7,2.5-1.1
	C420.9,380.3,421.3,380.2,421.6,380.1L421.6,380.1z"/>
<path class="st15" d="M364.3,350.7c0.1-0.1,0.2-0.2,0.4-0.3l1.1-0.7l4.4-2.8l15.7-0.1h0.2v0.2l0.5,2.4l0.1,0.3h-0.3
	c-1-0.2-2,0-2.9,0.6c-0.3,0.1,0.3,0.5,0.8,0.7c0.5,0.2,1.1,0.3,1.6,0.5c1.1,0.4,2.2,0.5,3.3,0.3c1.1-0.4,2-1.1,2.6-2.2l0.1-0.2
	l0.2,0.1c0.3,0.2,0.6,0.3,1,0.4c0.4,0,0.7,0,1.1-0.1c0.7-0.3,1.4-0.8,1.9-1.5l0.1-0.2l0.2,0.1c0.2,0.2,0.5,0.3,0.8,0.3
	c0.3,0,0.6-0.1,0.8-0.3c0.6-0.4,1-0.9,1.3-1.5l0.2-0.3l0.2,0.3c0.8,0.8,1.6,1.5,2.4,2.2c0.4,0.3,0.9,0.6,1.4,0.9
	c0.5,0.2,1.1,0.3,1.6,0.3c0.7,0,1.3,0,2-0.1l-0.2,0.4c-2.8-4-5.5-7.9-8.2-11.6L397,336l-0.5-0.6c-0.1-0.2-0.3-0.4-0.5-0.5
	c-0.2-0.1-0.5-0.1-0.7-0.1h-0.8c-2.1,0-4.1,0.2-6.1,0.3c-7.8,0.6-14.2,1.4-18.6,1.8l-5.2,1.1l-1.4,0.3c-0.2,0-0.3,0.1-0.5,0.1
	l0.5-0.1l1.4-0.3l5.2-1.2c4.4-0.5,10.8-1.3,18.6-2c2-0.1,4-0.3,6.1-0.3c0.3,0,0.5,0,0.8,0c0.3,0,0.6,0.1,0.9,0.2
	c0.2,0.2,0.4,0.4,0.6,0.7l0.5,0.6c0.6,0.9,1.3,1.8,2,2.7c2.6,3.6,5.4,7.5,8.2,11.6l0.2,0.3l-0.4,0.1c-0.7,0.1-1.4,0.2-2.1,0.1
	c-0.6,0-1.2-0.1-1.8-0.3c-0.5-0.3-1-0.6-1.5-0.9c-0.9-0.7-1.7-1.5-2.5-2.3l0.4,0c-0.4,0.7-0.9,1.2-1.5,1.7c-0.3,0.2-0.7,0.3-1.1,0.3
	c-0.4,0-0.8-0.1-1.1-0.4l0.4-0.1c-0.5,0.7-1.3,1.2-2.1,1.5c-0.4,0.2-0.9,0.2-1.3,0.2c-0.4,0-0.9-0.2-1.2-0.4l0.4-0.1
	c-0.6,1.1-1.6,2-2.9,2.4c-0.6,0.1-1.2,0.1-1.9,0c-0.6-0.1-1.1-0.2-1.7-0.4c-0.6-0.1-1.1-0.3-1.6-0.5c-0.3-0.1-0.6-0.2-0.8-0.4
	c-0.2-0.1-0.3-0.2-0.3-0.4c0-0.1,0-0.2,0-0.3c0-0.1,0.1-0.2,0.2-0.3c0.5-0.4,1-0.6,1.6-0.7c0.5-0.1,1.1-0.1,1.6,0l-0.3,0.3
	c-0.2-0.9-0.3-1.7-0.5-2.4l0.2,0.2h-15.7h0.1l-4.4,2.7l-1.2,0.7C364.5,350.6,364.4,350.6,364.3,350.7z"/>
<path class="st16" d="M432.2,393.4c0-0.2-0.1-0.4-0.1-0.5c0-0.4,0-0.9-0.1-1.5c-0.1-1.4-0.1-3.3-0.2-5.6c-0.1-2.3-0.2-5.3-0.3-8.4
	c-0.1-1.6-0.1-3.3-0.2-4.9c-0.2-1.8-0.5-3.5-0.9-5.2c-0.2-0.9-0.5-1.7-0.9-2.5c-0.4-0.8-0.8-1.5-1.4-2.1c-1.2-1.1-2.5-2.1-4-2.7
	c-1.3-0.6-2.8-1-4.3-1.1c-1.3-0.1-2.6-0.1-3.9,0c-2.4,0.1-4.3,0.3-5.6,0.4l-1.5,0.1c-0.2,0-0.4,0-0.5,0c0.2-0.1,0.3-0.1,0.5-0.1
	l1.5-0.2c1.3-0.2,3.2-0.4,5.6-0.6c1.3-0.1,2.6-0.1,3.9-0.1c1.5,0.1,3,0.4,4.4,1.1c1.6,0.7,3,1.6,4.2,2.8c0.6,0.6,1.2,1.4,1.6,2.2
	c0.4,0.8,0.7,1.7,0.9,2.6c0.5,1.7,0.8,3.5,0.9,5.3c0.1,1.7,0.1,3.4,0.2,5c0.1,3.1,0.1,6,0.2,8.4c0.1,2.4,0,4.2,0.1,5.6v1.5
	C432.2,393,432.2,393.2,432.2,393.4z"/>
<path class="st4" d="M370.8,361.5l40.9-7.3l28.6-44.6l28.1,5.9L442,355.9l-74,9.2c-0.1-0.9,0.1-1.7,0.6-2.4S369.9,361.6,370.8,361.5
	z"/>
<path class="st2" d="M441.5,334.1c-0.9,1.2-1,2.5-0.3,3.1c0.7,0.5,2,0,2.8-1.2c0.8-1.2,1-2.5,0.3-3.1
	C443.6,332.4,442.4,332.9,441.5,334.1z"/>
<g>
	<path class="st17" d="M206.4,248.8l35.2-63.4l28.8,40.5l17.5-21.5l26.1,44.4H206.4z"/>
</g>
<g>
	<path class="st17" d="M282.7,173c0,1.8-0.5,3.6-1.5,5.1c-1,1.5-2.4,2.7-4.1,3.4c-1.7,0.7-3.5,0.9-5.3,0.5c-1.8-0.4-3.4-1.2-4.7-2.5
		c-1.3-1.3-2.2-2.9-2.5-4.7c-0.4-1.8-0.2-3.6,0.5-5.3c0.7-1.7,1.9-3.1,3.4-4.1c1.5-1,3.3-1.5,5.1-1.5c2.4,0,4.8,1,6.5,2.7
		C281.8,168.2,282.7,170.6,282.7,173z"/>
</g>
<g>
	<path class="st17" d="M314,145.8l-107.6-0.1c0.1-0.1-1.2,1.2-0.6,0.6v13.9c0,4.6,0,9.2,0,13.7c0,9.1,0,17.9,0,26.6
		c0,17.3,0,33.6,0.1,48.6v0.5h0.5l78.2-0.3l21.8-0.1l5.7-0.1h1.5c0.2,0,0.3,0,0.5,0h-0.5h-1.5l-5.8-0.1l-22-0.1l-77.3-0.3
		c0-14.9,0-31,0.1-48.1c0-8.6,0-17.5,0-26.6v-27.2l106.5-0.1c0.1,30.5,0.2,56,0.3,73.9c0,9,0.1,16,0.1,20.9c0,2.4,0,4.2,0.1,5.6
		c0,0.6,0,1.1,0,1.4c0,0.2,0,0.3,0,0.5c0-0.2,0-0.3,0-0.5c0-0.3,0-0.8,0-1.4c0-1.3,0-3.1,0.1-5.4c0-4.9,0.1-11.9,0.1-20.8
		c0.1-18.1,0.2-43.8,0.3-74.7v-0.5H314z"/>
</g>
<g>
	<path class="st11" d="M391.6,188v-7l-6.6-10.1h4.2l4.3,6.9l4.2-6.9h4.2l-6.6,10.1v7H391.6z"/>
	<path class="st11" d="M401.6,179.5c0-5.2,3.8-8.9,8.9-8.9c5.2,0,9,3.7,9,8.9s-3.8,8.9-9,8.9C405.4,188.3,401.6,184.6,401.6,179.5z
		 M415.7,179.5c0-3.2-2.1-5.6-5.2-5.6c-3.2,0-5.2,2.4-5.2,5.6c0,3.2,2,5.6,5.2,5.6C413.7,185.1,415.7,182.7,415.7,179.5z"/>
	<path class="st11" d="M422.1,181.2v-10.3h3.7v10.2c0,2.4,1.4,4,4,4c2.6,0,4-1.6,4-4v-10.2h3.7v10.3c0,4.3-2.5,7.2-7.7,7.2
		C424.6,188.3,422.1,185.4,422.1,181.2z"/>
	<path class="st11" d="M450.6,188l-3.4-6.1h-2.7v6.1h-3.6v-17.1h8c3.6,0,5.8,2.3,5.8,5.5c0,3-1.9,4.7-3.8,5.1l3.9,6.5H450.6z
		 M450.9,176.4c0-1.4-1.1-2.3-2.6-2.3h-3.8v4.6h3.8C449.8,178.7,450.9,177.9,450.9,176.4z"/>
</g>
<g>
	<path class="st11" d="M486,187.8v-13.9h-5v-3.2h13.7v3.2h-5v13.9H486z"/>
	<path class="st11" d="M497,187.8v-17.1h12.1v3.2h-8.5v3.6h8.3v3.2h-8.3v3.9h8.5v3.2H497z"/>
	<path class="st11" d="M523.1,187.8l-4.3-6.3l-4.3,6.3h-4.3l6.2-8.8l-5.8-8.4h4.3l3.9,5.9l3.9-5.9h4.4l-5.8,8.3l6.2,8.8H523.1z"/>
	<path class="st11" d="M533.1,187.8v-13.9h-5v-3.2h13.7v3.2h-5v13.9H533.1z"/>
</g>
</svg>
